<svg xmlns="http://www.w3.org/2000/svg" width="728" height="337" fill="none" viewBox="0 0 728 337"><path fill="#6F9FBB" d="M696.307 244.488H695.566L598.022 239.073C591.354 238.827 590.119 235.873 590.119 231.935V230.705L591.848 200.677C592.095 196.001 594.317 193.048 597.034 190.832C613.579 176.803 637.286 151.206 637.286 150.222C637.286 149.73 636.545 149.483 635.558 149.483L605.183 148.007C602.467 148.007 596.787 146.284 596.787 141.115V140.869L598.515 109.365C598.762 103.95 601.973 100.997 606.171 100.997H606.665L693.343 105.673C696.06 105.673 705.937 106.166 705.937 114.534V115.272L704.209 144.807C703.962 149.483 702.233 153.668 698.776 157.359C691.861 164.989 677.292 179.018 663.71 192.555C662.722 193.54 662.475 194.032 662.475 194.524C662.475 195.016 662.969 195.263 663.956 195.263L698.035 196.739C703.468 196.985 705.937 200.431 705.937 204.615V205.354L704.209 236.858C703.962 241.288 701.986 244.488 696.307 244.488Z"/><path fill="#6F9FBB" d="M559.547 204.845C546.478 251.038 492.112 263.632 458.362 254.147C419.62 243.259 393.541 205.754 405.336 164.062C419.143 115.263 462.917 100.203 504.748 111.96C557.275 126.722 568.26 174.049 559.547 204.845ZM476.867 210.505C493.742 215.247 505.235 203.645 509.055 190.143C510.329 185.642 515.879 162.397 491.636 155.583C471.671 149.972 461.208 165.188 458.192 175.848C453.568 192.193 463.319 206.697 476.867 210.505Z"/><path fill="#6F9FBB" d="M373.438 150.576C373.438 198.57 324.543 225.398 289.476 225.398C249.224 225.398 213.91 196.355 213.91 153.037C213.91 102.335 251.94 76 295.403 76C349.978 76 373.438 118.58 373.438 150.576ZM295.403 178.388C312.936 178.388 320.838 164.113 320.838 150.084C320.838 145.407 319.851 121.533 294.662 121.533C273.918 121.533 267.992 139.008 267.992 150.084C267.992 167.066 281.327 178.388 295.403 178.388Z"/><path fill="#6F9FBB" d="M173.962 246.145L139.586 248.42C137.599 248.667 135.748 247.07 134.462 245.586C129.924 240.12 85.4077 177.674 76.4235 168.924C75.5656 167.934 74.7982 167.664 74.2565 167.732C73.3536 167.844 73.0828 168.609 73.2636 170.049L73.3539 170.769L92.1854 246.287L92.2079 246.467C92.4564 248.447 91.1025 252.271 86.656 253.374L53.4316 261.903L52.8899 261.97C50.1813 262.308 47.6531 259.699 47.1789 257.382L22.0895 120.314L22.0443 119.954C21.7959 117.974 22.5178 113.498 26.1066 112.867L61.1144 106.858L61.4755 106.813C64.184 106.475 67.9761 107.465 68.9919 108.252C81.1814 117.699 107.999 151.644 128.564 178.142C129.242 179.155 129.828 179.447 130.37 179.38C131.092 179.289 131.318 178.165 131.137 176.725L124.066 102.848C123.795 100.688 125.533 98.4609 127.699 98.1907L128.061 98.1457L163.001 95.9829C165.913 95.8027 167.425 97.6247 167.696 99.7843C168.283 104.464 176.283 207.653 177.956 241.442C178.25 243.782 176.49 245.829 173.962 246.145Z"/><mask id="mask0_385_70" style="mask-type:alpha" width="684" height="186" x="22" y="76" maskUnits="userSpaceOnUse"><path fill="#425662" d="M696.307 244.488H695.566L598.022 239.073C591.354 238.827 590.119 235.873 590.119 231.935V230.705L591.848 200.677C592.095 196.001 594.317 193.048 597.034 190.832C613.579 176.803 637.286 151.206 637.286 150.222C637.286 149.73 636.545 149.483 635.558 149.483L605.183 148.007C602.467 148.007 596.787 146.284 596.787 141.115V140.869L598.515 109.365C598.762 103.95 601.973 100.997 606.171 100.997H606.665L693.343 105.673C696.06 105.673 705.937 106.166 705.937 114.534V115.272L704.209 144.807C703.962 149.483 702.233 153.668 698.776 157.359C691.861 164.989 677.292 179.018 663.71 192.555C662.722 193.54 662.475 194.032 662.475 194.524C662.475 195.016 662.969 195.263 663.956 195.263L698.035 196.739C703.468 196.985 705.937 200.431 705.937 204.615V205.354L704.209 236.858C703.962 241.288 701.986 244.488 696.307 244.488Z"/><path fill="#425662" d="M559.547 204.845C546.478 251.038 492.112 263.632 458.362 254.147C419.62 243.259 393.541 205.754 405.336 164.062C419.143 115.263 462.917 100.203 504.748 111.96C557.275 126.722 568.26 174.049 559.547 204.845ZM476.867 210.505C493.742 215.247 505.235 203.645 509.055 190.143C510.329 185.642 515.879 162.397 491.636 155.583C471.671 149.972 461.208 165.188 458.192 175.848C453.568 192.193 463.319 206.697 476.867 210.505Z"/><path fill="#425662" d="M373.438 150.576C373.438 198.57 324.543 225.398 289.476 225.398C249.224 225.398 213.91 196.355 213.91 153.037C213.91 102.335 251.94 76 295.403 76C349.978 76 373.438 118.58 373.438 150.576ZM295.403 178.388C312.936 178.388 320.838 164.113 320.838 150.084C320.838 145.407 319.851 121.533 294.662 121.533C273.918 121.533 267.992 139.008 267.992 150.084C267.992 167.066 281.327 178.388 295.403 178.388Z"/><path fill="#425662" d="M173.962 246.145L139.586 248.42C137.599 248.667 135.748 247.07 134.462 245.586C129.924 240.12 85.4077 177.674 76.4235 168.924C75.5656 167.934 74.7982 167.664 74.2565 167.732C73.3536 167.844 73.0828 168.609 73.2636 170.049L73.3539 170.769L92.1854 246.287L92.2079 246.467C92.4564 248.447 91.1025 252.271 86.656 253.374L53.4316 261.903L52.8899 261.97C50.1813 262.308 47.6531 259.699 47.1789 257.382L22.0895 120.314L22.0443 119.954C21.7959 117.974 22.5178 113.498 26.1066 112.867L61.1144 106.858L61.4755 106.813C64.184 106.475 67.9761 107.465 68.9919 108.252C81.1814 117.699 107.999 151.644 128.564 178.142C129.242 179.155 129.828 179.447 130.37 179.38C131.092 179.289 131.318 178.165 131.137 176.725L124.066 102.848C123.795 100.688 125.533 98.4609 127.699 98.1907L128.061 98.1457L163.001 95.9829C165.913 95.8027 167.425 97.6247 167.696 99.7843C168.283 104.464 176.283 207.653 177.956 241.442C178.25 243.782 176.49 245.829 173.962 246.145Z"/></mask><g mask="url(#mask0_385_70)"><path fill="#6D98B1" d="M22.6579 190.11C18.7999 191.654 -25.8882 227.418 -47.75 245.107V380.188L824.151 375.363L829.938 170.813L707.447 158.27L602.317 177.567C581.742 187.216 539.24 206.899 533.839 208.443C528.437 209.986 484.649 188.502 463.431 177.567L352.514 150.551C338.047 147.013 307.955 139.938 303.325 139.938C297.538 139.938 264.745 154.41 243.527 158.27C226.551 161.357 192.73 184.643 177.941 195.899L102.711 165.024C77.6339 172.743 26.5159 188.566 22.6579 190.11Z"/><path fill="#548099" d="M22.6579 211.423C18.7999 212.966 -25.8882 248.731 -47.75 266.42V401.5L824.151 396.676L829.938 192.126L707.447 179.582L602.317 198.88C581.742 208.528 539.24 228.211 533.839 229.755C528.437 231.299 484.649 209.815 463.431 198.88L352.514 171.863C338.047 168.326 307.955 161.25 303.325 161.25C297.538 161.25 264.745 175.723 243.527 179.582C226.551 182.67 192.73 205.955 177.941 217.212L102.711 186.336C77.6339 194.055 26.5159 209.879 22.6579 211.423Z"/><path fill="#456B81" d="M26.5329 228.86C22.6749 230.404 -22.0132 266.168 -43.875 283.857V418.938L828.026 414.113L833.812 209.563L711.322 197.02L606.192 216.317C585.617 225.966 543.115 245.649 537.714 247.193C532.312 248.736 488.524 227.252 467.306 216.317L356.389 189.301C341.922 185.763 311.83 178.688 307.2 178.688C301.413 178.688 268.62 193.16 247.402 197.02C230.426 200.107 196.605 223.393 181.816 234.649L106.586 203.774C81.5089 211.493 30.3909 227.316 26.5329 228.86Z"/></g></svg>