<svg width="600" height="600" viewBox="0 0 600 600" fill="none" xmlns="http://www.w3.org/2000/svg">
<path d="M548.919 507.251L445.783 514.103C439.824 514.849 434.27 510.039 430.41 505.568C416.797 489.107 283.237 301.051 256.282 274.699C253.709 271.719 251.406 270.906 249.781 271.109C247.072 271.448 246.26 273.752 246.802 278.087L247.073 280.255L303.572 507.68L303.639 508.222C304.385 514.184 300.323 525.701 286.982 529.022L187.302 554.707L185.676 554.911C177.55 555.928 169.965 548.07 168.542 541.092L93.2686 128.311L93.133 127.227C92.3876 121.265 94.5534 107.783 105.321 105.885L210.352 87.787L211.435 87.6514C219.561 86.6345 230.939 89.6144 233.986 91.9853C270.557 120.436 351.017 222.66 412.717 302.462C414.749 305.51 416.509 306.391 418.135 306.187C420.302 305.916 420.979 302.529 420.436 298.193L399.22 75.7108C398.407 69.2071 403.621 62.4996 410.122 61.686L411.205 61.5504L516.034 55.0371C524.77 54.4943 529.308 59.9815 530.121 66.4852C531.883 80.5766 555.884 391.334 560.904 493.091C561.785 500.136 556.503 506.302 548.919 507.251Z" fill="#367397" stroke="#367397" stroke-width="33"/>
<path d="M506.919 497.251L403.783 504.103C397.824 504.849 392.27 500.039 388.41 495.568C374.797 479.107 241.237 291.051 214.282 264.699C211.709 261.719 209.406 260.906 207.781 261.109C205.072 261.448 204.26 263.752 204.802 268.087L205.073 270.255L261.572 497.68L261.639 498.222C262.385 504.184 258.323 515.701 244.982 519.022L145.302 544.707L143.676 544.911C135.55 545.928 127.965 538.07 126.542 531.092L51.2686 118.311L51.133 117.227C50.3876 111.265 52.5534 97.7831 63.3206 95.8852L168.352 77.787L169.435 77.6514C177.561 76.6345 188.939 79.6144 191.986 81.9853C228.557 110.436 309.017 212.66 370.717 292.462C372.749 295.51 374.509 296.391 376.135 296.187C378.302 295.916 378.979 292.529 378.436 288.193L357.22 65.7108C356.407 59.2071 361.621 52.4996 368.122 51.686L369.205 51.5504L474.034 45.0371C482.77 44.4943 487.308 49.9815 488.121 56.4852C489.883 70.5766 513.884 381.334 518.904 483.091C519.785 490.136 514.503 496.302 506.919 497.251Z" fill="#6F9FBB" stroke="#FAEFD6" stroke-width="33"/>
<path d="M486.746 493.832L386.133 500.513C380.319 501.24 374.901 496.55 371.135 492.19C357.855 476.138 227.562 292.759 201.267 267.062C198.756 264.156 196.51 263.363 194.924 263.562C192.282 263.892 191.489 266.138 192.018 270.366L192.282 272.48L247.399 494.25L247.465 494.778C248.193 500.592 244.23 511.823 231.216 515.061L133.973 540.108L132.387 540.306C124.46 541.298 117.06 533.635 115.672 526.831L42.2394 124.314L42.1072 123.257C41.38 117.444 43.4928 104.297 53.9967 102.446L156.459 84.798L157.516 84.6658C165.444 83.6742 176.543 86.5799 179.516 88.8919C215.192 116.635 293.684 216.317 353.875 294.135C355.857 297.107 357.575 297.966 359.16 297.768C361.274 297.503 361.935 294.2 361.406 289.972L340.708 73.0221C339.915 66.6801 345.001 60.1394 351.343 59.3461L352.4 59.2139L454.666 52.8625C463.188 52.3332 467.614 57.684 468.408 64.0259C470.127 77.7669 493.541 380.797 498.438 480.023C499.298 486.894 494.145 492.906 486.746 493.832Z" fill="#6F9FBB"/>
<mask id="mask0_388_6" style="mask-type:alpha" maskUnits="userSpaceOnUse" x="41" y="52" width="458" height="489">
<path d="M486.746 493.832L386.133 500.513C380.319 501.24 374.901 496.55 371.135 492.19C357.855 476.138 227.562 292.759 201.267 267.062C198.756 264.156 196.51 263.363 194.924 263.562C192.282 263.892 191.489 266.138 192.018 270.366L192.282 272.48L247.399 494.25L247.465 494.778C248.193 500.592 244.23 511.823 231.216 515.061L133.973 540.108L132.387 540.306C124.46 541.298 117.06 533.635 115.672 526.831L42.2394 124.314L42.1072 123.257C41.38 117.444 43.4928 104.297 53.9967 102.446L156.459 84.798L157.516 84.6658C165.444 83.6742 176.543 86.5799 179.516 88.8919C215.192 116.635 293.684 216.317 353.875 294.135C355.857 297.107 357.575 297.966 359.16 297.768C361.274 297.503 361.935 294.2 361.406 289.972L340.708 73.0221C339.915 66.6801 345.001 60.1394 351.343 59.3461L352.4 59.2139L454.666 52.8625C463.188 52.3332 467.614 57.684 468.408 64.0259C470.127 77.7669 493.541 380.797 498.438 480.023C499.298 486.894 494.145 492.906 486.746 493.832Z" fill="#6F9FBB"/>
</mask>
<g mask="url(#mask0_388_6)">
<path d="M64.3932 292.57L34.9981 294.93C-2.98344 297.98 -31.788 330.454 -30.2392 368.527C-27.0478 446.979 -23.2236 538.771 -22.7047 542.922C-22.1004 547.756 258.126 533.863 448.026 523.653C487.205 521.546 517.135 488.008 514.928 448.834L506.249 294.775C504.149 257.502 467.26 243.361 430.653 250.682C427.729 251.267 402.554 238.17 384.935 228.634C379.428 225.653 373.58 223.361 367.498 221.873L325.657 211.635C306.784 207.017 286.843 210.336 270.483 220.816L258.762 228.325C247.33 235.649 234.038 239.541 220.462 239.541H177.898C162.822 239.541 148.138 244.34 135.972 253.242L100.637 279.097C90.0348 286.854 77.4883 291.518 64.3932 292.57Z" fill="#6497B5"/>
<path d="M64.3932 373.129L34.9981 375.489C-2.98344 378.538 -31.788 411.013 -30.2392 449.086C-27.0478 527.538 -23.2236 619.33 -22.7047 623.481C-22.1004 628.315 258.126 614.422 448.026 604.212C487.205 602.105 517.135 568.567 514.928 529.393L506.249 375.334C504.149 338.061 467.26 323.92 430.653 331.241C427.729 331.826 402.554 318.728 384.935 309.193C379.428 306.212 373.58 303.92 367.498 302.432L325.657 292.194C306.784 287.576 286.843 290.894 270.483 301.375L258.762 308.884C247.33 316.208 234.038 320.1 220.462 320.1H177.898C162.822 320.1 148.138 324.899 135.972 333.801L100.637 359.656C90.0348 367.413 77.4883 372.077 64.3932 373.129Z" fill="#508CAF"/>
<path d="M64.3932 439.975L34.9981 442.336C-2.98344 445.385 -31.788 477.86 -30.2392 515.932C-27.0478 594.385 -23.2236 686.177 -22.7047 690.328C-22.1004 695.162 258.126 681.269 448.026 671.058C487.205 668.952 517.135 635.414 514.928 596.24L506.249 442.181C504.149 404.908 467.26 390.766 430.653 398.088C427.729 398.673 402.554 385.575 384.935 376.039C379.428 373.059 373.58 370.767 367.498 369.278L325.657 359.041C306.784 354.423 286.843 357.741 270.483 368.222L258.762 375.731C247.33 383.054 234.038 386.947 220.462 386.947H177.898C162.822 386.947 148.138 391.745 135.972 400.648L100.637 426.502C90.0348 434.26 77.4883 438.924 64.3932 439.975Z" fill="#367397"/>
</g>
</svg>
