<svg xmlns="http://www.w3.org/2000/svg" xmlns:svg="http://www.w3.org/2000/svg" id="svg2425" width="1122.528" height="793.728" version="1.1" viewBox="0 0 297.002 210.007"><title id="title1">SVG Image created as untitled-F_Silkscreen.svg date 2024/09/16 10:18:24</title><desc id="desc1">Image generated by PCBNEW</desc><rect style="fill:#fff;fill-opacity:.87315637;stroke:none;stroke-width:0;stroke-miterlimit:2.9;stroke-dasharray:none" id="rect2425" width="82.984" height="99.074" x="0" y="0" ry="0"/><g style="fill:none;stroke:#008484;stroke-width:.15;stroke-linecap:round;stroke-linejoin:round;stroke-opacity:1" id="g1118" transform="translate(-101.6004,-47.222)"><path id="path885" d="m 147.8788,127.1286 v 0.4762"/><path id="path886" d="m 147.5455,126.6048 0.3333,0.5238"/><path id="path887" d="m 147.8788,127.1286 0.3333,-0.5238"/><path id="path888" d="m 143.4307,126.6302 0.6666,1"/><path id="path889" d="m 144.0973,126.6302 -0.6666,1"/><path id="path890" d="m 153.5909,142.7686 v -1"/><path id="path891" d="m 153.5909,141.7686 0.3333,0.7143"/><path id="path892" d="m 153.9242,142.4829 0.3334,-0.7143"/><path id="path893" d="m 154.2576,141.7686 v 1"/><path id="path894" d="m 154.8766,142.7686 -0.0952,-0.0476"/><path id="path895" d="m 154.7814,142.721 -0.0476,-0.0477"/><path id="path896" d="m 154.7338,142.6733 -0.0477,-0.0952"/><path id="path897" d="m 154.6861,142.5781 v -0.2857"/><path id="path898" d="m 154.6861,142.2924 0.0477,-0.0953"/><path id="path899" d="m 154.7338,142.1971 0.0476,-0.0476"/><path id="path900" d="m 154.7814,142.1495 0.0952,-0.0476"/><path id="path901" d="m 154.8766,142.1019 h 0.1429"/><path id="path902" d="m 155.0195,142.1019 0.0952,0.0476"/><path id="path903" d="m 155.1147,142.1495 0.0476,0.0476"/><path id="path904" d="m 155.1623,142.1971 0.0476,0.0953"/><path id="path905" d="m 155.2099,142.2924 v 0.2857"/><path id="path906" d="m 155.2099,142.5781 -0.0476,0.0952"/><path id="path907" d="m 155.1623,142.6733 -0.0476,0.0477"/><path id="path908" d="m 155.1147,142.721 -0.0952,0.0476"/><path id="path909" d="m 155.0195,142.7686 h -0.1429"/><path id="path910" d="m 155.4957,142.1019 h 0.3809"/><path id="path911" d="m 155.6385,141.7686 v 0.8571"/><path id="path912" d="m 155.6385,142.6257 0.0476,0.0953"/><path id="path913" d="m 155.6861,142.721 0.0953,0.0476"/><path id="path914" d="m 155.7814,142.7686 h 0.0952"/><path id="path915" d="m 156.3528,142.7686 -0.0952,-0.0476"/><path id="path916" d="m 156.2576,142.721 -0.0477,-0.0477"/><path id="path917" d="m 156.2099,142.6733 -0.0476,-0.0952"/><path id="path918" d="m 156.1623,142.5781 v -0.2857"/><path id="path919" d="m 156.1623,142.2924 0.0476,-0.0953"/><path id="path920" d="m 156.2099,142.1971 0.0477,-0.0476"/><path id="path921" d="m 156.2576,142.1495 0.0952,-0.0476"/><path id="path922" d="m 156.3528,142.1019 h 0.1429"/><path id="path923" d="m 156.4957,142.1019 0.0952,0.0476"/><path id="path924" d="m 156.5909,142.1495 0.0476,0.0476"/><path id="path925" d="m 156.6385,142.1971 0.0476,0.0953"/><path id="path926" d="m 156.6861,142.2924 v 0.2857"/><path id="path927" d="m 156.6861,142.5781 -0.0476,0.0952"/><path id="path928" d="m 156.6385,142.6733 -0.0476,0.0477"/><path id="path929" d="m 156.5909,142.721 -0.0952,0.0476"/><path id="path930" d="m 156.4957,142.7686 h -0.1429"/><path id="path931" d="m 157.1147,142.7686 v -0.6667"/><path id="path932" d="m 157.1147,142.2924 0.0476,-0.0953"/><path id="path933" d="m 157.1623,142.1971 0.0476,-0.0476"/><path id="path934" d="m 157.2099,142.1495 0.0953,-0.0476"/><path id="path935" d="m 157.3052,142.1019 h 0.0952"/><path id="path936" d="m 157.6861,142.721 0.0953,0.0476"/><path id="path937" d="m 157.7814,142.7686 h 0.1905"/><path id="path938" d="m 157.9719,142.7686 0.0952,-0.0476"/><path id="path939" d="m 158.0671,142.721 0.0476,-0.0953"/><path id="path940" d="m 158.1147,142.6257 v -0.0476"/><path id="path941" d="m 158.1147,142.5781 -0.0476,-0.0952"/><path id="path942" d="m 158.0671,142.4829 -0.0952,-0.0477"/><path id="path943" d="M 157.9719,142.4352 H 157.829"/><path id="path944" d="m 157.829,142.4352 -0.0952,-0.0476"/><path id="path945" d="m 157.7338,142.3876 -0.0477,-0.0952"/><path id="path946" d="m 157.6861,142.2924 v -0.0476"/><path id="path947" d="m 157.6861,142.2448 0.0477,-0.0953"/><path id="path948" d="m 157.7338,142.1495 0.0952,-0.0476"/><path id="path949" d="m 157.829,142.1019 h 0.1429"/><path id="path950" d="m 157.9719,142.1019 0.0952,0.0476"/><path id="path951" d="m 139.4128,129.0578 0.1428,0.0476"/><path id="path952" d="m 139.5556,129.1054 h 0.2381"/><path id="path953" d="m 139.7937,129.1054 0.0953,-0.0476"/><path id="path954" d="m 139.889,129.0578 0.0476,-0.0477"/><path id="path955" d="m 139.9366,129.0101 0.0476,-0.0952"/><path id="path956" d="m 139.9842,128.9149 v -0.0952"/><path id="path957" d="m 139.9842,128.8197 -0.0476,-0.0953"/><path id="path958" d="m 139.9366,128.7244 -0.0476,-0.0476"/><path id="path959" d="m 139.889,128.6768 -0.0953,-0.0476"/><path id="path960" d="m 139.7937,128.6292 -0.1904,-0.0476"/><path id="path961" d="M 139.6033,128.5816 139.508,128.534"/><path id="path962" d="m 139.508,128.534 -0.0476,-0.0477"/><path id="path963" d="m 139.4604,128.4863 -0.0476,-0.0952"/><path id="path964" d="m 139.4128,128.3911 v -0.0952"/><path id="path965" d="m 139.4128,128.2959 0.0476,-0.0953"/><path id="path966" d="m 139.4604,128.2006 0.0476,-0.0476"/><path id="path967" d="m 139.508,128.153 0.0953,-0.0476"/><path id="path968" d="m 139.6033,128.1054 h 0.2381"/><path id="path969" d="m 139.8414,128.1054 0.1428,0.0476"/><path id="path970" d="m 140.4128,129.1054 v -1"/><path id="path971" d="m 141.4128,128.153 -0.0953,-0.0476"/><path id="path972" d="m 141.3175,128.1054 h -0.1428"/><path id="path973" d="m 141.1747,128.1054 -0.1429,0.0476"/><path id="path974" d="m 141.0318,128.153 -0.0952,0.0952"/><path id="path975" d="m 140.9366,128.2482 -0.0476,0.0953"/><path id="path976" d="m 140.889,128.3435 -0.0476,0.1905"/><path id="path977" d="m 140.8414,128.534 v 0.1428"/><path id="path978" d="m 140.8414,128.6768 0.0476,0.1905"/><path id="path979" d="m 140.889,128.8673 0.0476,0.0952"/><path id="path980" d="m 140.9366,128.9625 0.0952,0.0953"/><path id="path981" d="m 141.0318,129.0578 0.1429,0.0476"/><path id="path982" d="m 141.1747,129.1054 h 0.0952"/><path id="path983" d="m 141.2699,129.1054 0.1429,-0.0476"/><path id="path984" d="m 141.4128,129.0578 0.0476,-0.0477"/><path id="path985" d="m 141.4604,129.0101 v -0.3333"/><path id="path986" d="m 141.4604,128.6768 h -0.1905"/><path id="path987" d="m 140.2461,131.4054 h -0.4762"/><path id="path988" d="m 139.7699,131.4054 -0.0476,0.4762"/><path id="path989" d="m 139.7223,131.8816 0.0476,-0.0477"/><path id="path990" d="m 139.7699,131.8339 0.0953,-0.0476"/><path id="path991" d="m 139.8652,131.7863 h 0.2381"/><path id="path992" d="m 140.1033,131.7863 0.0952,0.0476"/><path id="path993" d="m 140.1985,131.8339 0.0476,0.0477"/><path id="path994" d="m 140.2461,131.8816 0.0476,0.0952"/><path id="path995" d="m 140.2937,131.9768 v 0.2381"/><path id="path996" d="m 140.2937,132.2149 -0.0476,0.0952"/><path id="path997" d="m 140.2461,132.3101 -0.0476,0.0477"/><path id="path998" d="m 140.1985,132.3578 -0.0952,0.0476"/><path id="path999" d="m 140.1033,132.4054 h -0.2381"/><path id="path1000" d="m 139.8652,132.4054 -0.0953,-0.0476"/><path id="path1001" d="m 139.7699,132.3578 -0.0476,-0.0477"/><path id="path1002" d="m 140.5795,131.4054 0.3333,1"/><path id="path1003" d="m 140.9128,132.4054 0.3333,-1"/><path id="path1004" d="m 139.6747,134.753 -0.0952,-0.0476"/><path id="path1005" d="m 139.5795,134.7054 h -0.1429"/><path id="path1006" d="m 139.4366,134.7054 -0.1429,0.0476"/><path id="path1007" d="m 139.2937,134.753 -0.0952,0.0952"/><path id="path1008" d="m 139.1985,134.8482 -0.0476,0.0953"/><path id="path1009" d="m 139.1509,134.9435 -0.0476,0.1904"/><path id="path1010" d="m 139.1033,135.1339 v 0.1429"/><path id="path1011" d="m 139.1033,135.2768 0.0476,0.1905"/><path id="path1012" d="m 139.1509,135.4673 0.0476,0.0952"/><path id="path1013" d="m 139.1985,135.5625 0.0952,0.0953"/><path id="path1014" d="m 139.2937,135.6578 0.1429,0.0476"/><path id="path1015" d="m 139.4366,135.7054 h 0.0952"/><path id="path1016" d="m 139.5318,135.7054 0.1429,-0.0476"/><path id="path1017" d="m 139.6747,135.6578 0.0476,-0.0477"/><path id="path1018" d="m 139.7223,135.6101 v -0.3333"/><path id="path1019" d="m 139.7223,135.2768 h -0.1905"/><path id="path1020" d="m 140.1509,135.7054 v -1"/><path id="path1021" d="m 140.1509,134.7054 0.5714,1"/><path id="path1022" d="m 140.7223,135.7054 v -1"/><path id="path1023" d="m 141.1985,135.7054 v -1"/><path id="path1024" d="m 141.1985,134.7054 h 0.2381"/><path id="path1025" d="m 141.4366,134.7054 0.1429,0.0476"/><path id="path1026" d="m 141.5795,134.753 0.0952,0.0952"/><path id="path1027" d="m 141.6747,134.8482 0.0476,0.0953"/><path id="path1028" d="m 141.7223,134.9435 0.0476,0.1904"/><path id="path1029" d="m 141.7699,135.1339 v 0.1429"/><path id="path1030" d="m 141.7699,135.2768 -0.0476,0.1905"/><path id="path1031" d="m 141.7223,135.4673 -0.0476,0.0952"/><path id="path1032" d="m 141.6747,135.5625 -0.0952,0.0953"/><path id="path1033" d="m 141.5795,135.6578 -0.1429,0.0476"/><path id="path1034" d="m 141.4366,135.7054 h -0.2381"/><path id="path1035" d="m 135.552,139.5734 0.1429,0.0476"/><path id="path1036" d="m 135.6949,139.621 h 0.238"/><path id="path1037" d="m 135.9329,139.621 0.0953,-0.0476"/><path id="path1038" d="m 136.0282,139.5734 0.0476,-0.0477"/><path id="path1039" d="m 136.0758,139.5257 0.0476,-0.0952"/><path id="path1040" d="m 136.1234,139.4305 v -0.0952"/><path id="path1041" d="M 136.1234,139.3353 136.0758,139.24"/><path id="path1042" d="m 136.0758,139.24 -0.0476,-0.0476"/><path id="path1043" d="m 136.0282,139.1924 -0.0953,-0.0476"/><path id="path1044" d="m 135.9329,139.1448 -0.1904,-0.0476"/><path id="path1045" d="m 135.7425,139.0972 -0.0953,-0.0477"/><path id="path1046" d="m 135.6472,139.0495 -0.0476,-0.0476"/><path id="path1047" d="m 135.5996,139.0019 -0.0476,-0.0952"/><path id="path1048" d="m 135.552,138.9067 v -0.0952"/><path id="path1049" d="m 135.552,138.8115 0.0476,-0.0953"/><path id="path1050" d="m 135.5996,138.7162 0.0476,-0.0476"/><path id="path1051" d="m 135.6472,138.6686 0.0953,-0.0476"/><path id="path1052" d="m 135.7425,138.621 h 0.2381"/><path id="path1053" d="m 135.9806,138.621 0.1428,0.0476"/><path id="path1054" d="m 136.552,139.621 v -1"/><path id="path1055" d="m 137.552,138.6686 -0.0953,-0.0476"/><path id="path1056" d="m 137.4567,138.621 h -0.1428"/><path id="path1057" d="m 137.3139,138.621 -0.1429,0.0476"/><path id="path1058" d="m 137.171,138.6686 -0.0952,0.0952"/><path id="path1059" d="m 137.0758,138.7638 -0.0476,0.0953"/><path id="path1060" d="m 137.0282,138.8591 -0.0476,0.1904"/><path id="path1061" d="m 136.9806,139.0495 v 0.1429"/><path id="path1062" d="m 136.9806,139.1924 0.0476,0.1905"/><path id="path1063" d="m 137.0282,139.3829 0.0476,0.0952"/><path id="path1064" d="m 137.0758,139.4781 0.0952,0.0953"/><path id="path1065" d="m 137.171,139.5734 0.1429,0.0476"/><path id="path1066" d="m 137.3139,139.621 h 0.0952"/><path id="path1067" d="m 137.4091,139.621 0.1429,-0.0476"/><path id="path1068" d="m 137.552,139.5734 0.0476,-0.0477"/><path id="path1069" d="m 137.5996,139.5257 v -0.3333"/><path id="path1070" d="m 137.5996,139.1924 h -0.1905"/><path id="path1071" d="m 136.3853,141.921 h -0.4762"/><path id="path1072" d="m 135.9091,141.921 -0.0476,0.4762"/><path id="path1073" d="m 135.8615,142.3972 0.0476,-0.0477"/><path id="path1074" d="m 135.9091,142.3495 0.0953,-0.0476"/><path id="path1075" d="m 136.0044,142.3019 h 0.2381"/><path id="path1076" d="m 136.2425,142.3019 0.0952,0.0476"/><path id="path1077" d="m 136.3377,142.3495 0.0476,0.0477"/><path id="path1078" d="m 136.3853,142.3972 0.0476,0.0952"/><path id="path1079" d="m 136.4329,142.4924 v 0.2381"/><path id="path1080" d="m 136.4329,142.7305 -0.0476,0.0952"/><path id="path1081" d="m 136.3853,142.8257 -0.0476,0.0477"/><path id="path1082" d="m 136.3377,142.8734 -0.0952,0.0476"/><path id="path1083" d="m 136.2425,142.921 h -0.2381"/><path id="path1084" d="m 136.0044,142.921 -0.0953,-0.0476"/><path id="path1085" d="m 135.9091,142.8734 -0.0476,-0.0477"/><path id="path1086" d="m 136.7187,141.921 0.3333,1"/><path id="path1087" d="m 137.052,142.921 0.3333,-1"/><path id="path1088" d="m 135.8139,145.2686 -0.0952,-0.0476"/><path id="path1089" d="m 135.7187,145.221 h -0.1429"/><path id="path1090" d="m 135.5758,145.221 -0.1429,0.0476"/><path id="path1091" d="m 135.4329,145.2686 -0.0952,0.0952"/><path id="path1092" d="m 135.3377,145.3638 -0.0476,0.0953"/><path id="path1093" d="m 135.2901,145.4591 -0.0476,0.1905"/><path id="path1094" d="m 135.2425,145.6496 v 0.1428"/><path id="path1095" d="m 135.2425,145.7924 0.0476,0.1905"/><path id="path1096" d="m 135.2901,145.9829 0.0476,0.0952"/><path id="path1097" d="m 135.3377,146.0781 0.0952,0.0953"/><path id="path1098" d="m 135.4329,146.1734 0.1429,0.0476"/><path id="path1099" d="m 135.5758,146.221 h 0.0952"/><path id="path1100" d="m 135.671,146.221 0.1429,-0.0476"/><path id="path1101" d="m 135.8139,146.1734 0.0476,-0.0477"/><path id="path1102" d="m 135.8615,146.1257 v -0.3333"/><path id="path1103" d="M 135.8615,145.7924 H 135.671"/><path id="path1104" d="m 136.2901,146.221 v -1"/><path id="path1105" d="m 136.2901,145.221 0.5714,1"/><path id="path1106" d="m 136.8615,146.221 v -1"/><path id="path1107" d="m 137.3377,146.221 v -1"/><path id="path1108" d="m 137.3377,145.221 h 0.2381"/><path id="path1109" d="m 137.5758,145.221 0.1429,0.0476"/><path id="path1110" d="m 137.7187,145.2686 0.0952,0.0952"/><path id="path1111" d="m 137.8139,145.3638 0.0476,0.0953"/><path id="path1112" d="m 137.8615,145.4591 0.0476,0.1905"/><path id="path1113" d="m 137.9091,145.6496 v 0.1428"/><path id="path1114" d="m 137.9091,145.7924 -0.0476,0.1905"/><path id="path1115" d="m 137.8615,145.9829 -0.0476,0.0952"/><path id="path1116" d="m 137.8139,146.0781 -0.0952,0.0953"/><path id="path1117" d="m 137.7187,146.1734 -0.1429,0.0476"/><path id="path1118" d="m 137.5758,146.221 h -0.2381"/></g><g style="fill:none;stroke:#008484;stroke-width:.12;stroke-linecap:round;stroke-linejoin:round;stroke-opacity:1" id="g1121" transform="translate(-101.6004,-47.222)"><path id="path1119" d="m 141.3256,71.882 -0.9144,3.5814"/><path id="path1120" d="m 137.8712,72.898 3.4544,-1.0414"/><path style="fill:#008484;fill-opacity:1;fill-rule:evenodd;stroke:none" id="path1121" d="m 140.3858,75.438 -1.9304,1.9812 -2.286,-2.794 1.7272,-1.7018 z"/></g><g style="fill:none;stroke:#008484;stroke-width:.1;stroke-linecap:round;stroke-linejoin:round;stroke-opacity:1" id="g1126" transform="translate(-101.6004,-47.222)"><path id="path1122" d="m 140.3858,75.438 -1.9304,1.9812"/><path id="path1123" d="m 138.4554,77.4192 -2.286,-2.794"/><path id="path1124" d="m 136.1694,74.6252 1.7272,-1.7018"/><path id="path1125" d="m 137.8966,72.9234 2.4892,2.5146"/><path style="fill:#008484;fill-opacity:1;fill-rule:evenodd;stroke:none" id="path1126" d="m 129.4384,86.4108 -2.413,2.4384 -2.54,-2.4892 2.4892,-2.4892 z"/></g><g style="fill:none;stroke:#008484;stroke-width:.1;stroke-linecap:round;stroke-linejoin:round;stroke-opacity:1" id="g1130" transform="translate(-101.6004,-47.222)"><path id="path1127" d="m 129.4384,86.4108 -2.413,2.4384"/><path id="path1128" d="m 127.0254,88.8492 -2.54,-2.4892"/><path id="path1129" d="m 124.4854,86.36 2.4892,-2.4892"/><path id="path1130" d="m 126.9746,83.8708 2.4638,2.54"/></g><g style="fill:none;stroke:#008484;stroke-width:.15;stroke-linecap:round;stroke-linejoin:round;stroke-opacity:1" id="g1160" transform="translate(-101.6004,-47.222)"><path id="path1131" d="m 130.106,84.8778 -0.7744,0.7745"/><path id="path1132" d="m 129.3316,85.6523 -1.6264,-1.6264"/><path id="path1133" d="m 130.6481,84.3357 -1.6263,-1.6263"/><path id="path1134" d="m 131.1128,82.1673 -0.5421,0.5421"/><path id="path1135" d="m 131.4226,83.5613 -1.6264,-1.6264"/><path id="path1136" d="m 129.7962,81.9349 0.7745,-0.7744"/><path id="path1137" d="m 130.9579,80.7732 0.9294,-0.9293"/><path id="path1138" d="m 133.0489,81.9349 -1.6263,-1.6263"/><path id="path1139" d="m 132.7391,78.992 0.3098,-0.3098"/><path id="path1140" d="m 133.0489,78.6822 0.2324,-0.0774"/><path id="path1141" d="m 133.2813,78.6048 h 0.3097"/><path id="path1142" d="m 133.591,78.6048 0.3873,0.2323"/><path id="path1143" d="m 133.9783,78.8371 0.5421,0.5421"/><path id="path1144" d="m 134.5204,79.3792 0.2323,0.3873"/><path id="path1145" d="m 134.7527,79.7665 v 0.3097"/><path id="path1146" d="m 134.7527,80.0762 -0.0774,0.2324"/><path id="path1147" d="m 134.6753,80.3086 -0.3098,0.3097"/><path id="path1148" d="m 134.3655,80.6183 -0.2323,0.0775"/><path id="path1149" d="m 134.1332,80.6958 h -0.3098"/><path id="path1150" d="m 133.8234,80.6958 -0.3872,-0.2323"/><path id="path1151" d="M 133.4362,80.4635 132.894,79.9213"/><path id="path1152" d="m 132.894,79.9213 -0.2323,-0.3872"/><path id="path1153" d="M 132.6617,79.5341 V 79.2243"/><path id="path1154" d="m 132.6617,79.2243 0.0774,-0.2323"/><path id="path1155" d="m 135.4497,77.8303 -0.5421,0.5422"/><path id="path1156" d="M 135.7595,79.2243 134.1332,77.598"/><path id="path1157" d="m 134.1332,77.598 0.7744,-0.7745"/><path id="path1158" d="m 136.8437,76.4363 -0.5421,0.5421"/><path id="path1159" d="M 137.1535,77.8303 135.5272,76.204"/><path id="path1160" d="m 135.5272,76.204 0.7744,-0.7745"/></g><g style="fill:none;stroke:#008484;stroke-width:.12;stroke-linecap:round;stroke-linejoin:round;stroke-opacity:1" id="g1163" transform="translate(-101.6004,-47.222)"><path id="path1161" d="m 134.6454,76.2 3.2258,-3.302"/><path id="path1162" d="m 137.16,78.74 3.2512,-3.2766"/><path style="fill:#008484;fill-opacity:1;fill-rule:evenodd;stroke:none" id="path1163" d="m 173.7106,82.0674 -1.8796,0.0254 -0.0254,-3.6322 -0.0508,-0.0254 h 1.9558 z"/></g><g style="fill:none;stroke:#008484;stroke-width:.1;stroke-linecap:round;stroke-linejoin:round;stroke-opacity:1" id="g1169" transform="translate(-101.6004,-47.222)"><path id="path1164" d="m 173.7106,82.0674 -1.8796,0.0254"/><path id="path1165" d="m 171.831,82.0928 -0.0254,-3.6322"/><path id="path1166" d="m 171.8056,78.4606 -0.0508,-0.0254"/><path id="path1167" d="m 171.7548,78.4352 h 1.9558"/><path id="path1168" d="m 173.7106,78.4352 v 3.6322"/><path style="fill:#008484;fill-opacity:1;fill-rule:evenodd;stroke:none" id="path1169" d="m 173.6852,66.294 -1.905,0.0254 1.1176,-1.905 z"/></g><g style="fill:none;stroke:#008484;stroke-width:.1;stroke-linecap:round;stroke-linejoin:round;stroke-opacity:1" id="g1173" transform="translate(-101.6004,-47.222)"><path id="path1170" d="m 173.6852,66.294 -1.905,0.0254"/><path id="path1171" d="m 171.7802,66.3194 1.1176,-1.905"/><path id="path1172" d="m 172.8978,64.4144 0.7874,1.8796"/><path style="fill:#008484;fill-opacity:1;fill-rule:evenodd;stroke:none" id="path1173" d="m 173.7614,69.215 h -2.0066 v -2.8702 h 2.0066 z"/></g><g style="fill:none;stroke:#008484;stroke-width:.1;stroke-linecap:round;stroke-linejoin:round;stroke-opacity:1" id="g1177" transform="translate(-101.6004,-47.222)"><path id="path1174" d="m 173.7614,69.215 h -2.0066"/><path id="path1175" d="M 171.7548,69.215 V 66.3448"/><path id="path1176" d="m 171.7548,66.3448 h 2.0066"/><path id="path1177" d="M 173.7614,66.3448 V 69.215"/></g><g style="fill:none;stroke:#008484;stroke-width:.15;stroke-linecap:round;stroke-linejoin:round;stroke-opacity:1" id="g1207" transform="translate(-101.6004,-47.222)"><path id="path1178" d="m 173.5454,77.2029 v 0.7619"/><path id="path1179" d="m 173.5454,77.9648 h -1.6"/><path id="path1180" d="m 173.5454,76.6695 h -1.6"/><path id="path1181" d="m 172.7073,75.3743 v 0.5333"/><path id="path1182" d="m 173.5454,75.9076 h -1.6"/><path id="path1183" d="M 171.9454,75.9076 V 75.1457"/><path id="path1184" d="M 171.9454,74.7648 V 73.8505"/><path id="path1185" d="m 173.5454,74.3076 h -1.6"/><path id="path1186" d="M 171.9454,73.0124 V 72.7076"/><path id="path1187" d="m 171.9454,72.7076 0.0762,-0.1523"/><path id="path1188" d="m 172.0216,72.5553 0.1524,-0.1524"/><path id="path1189" d="m 172.174,72.4029 0.3047,-0.0762"/><path id="path1190" d="m 172.4787,72.3267 h 0.5334"/><path id="path1191" d="m 173.0121,72.3267 0.3047,0.0762"/><path id="path1192" d="m 173.3168,72.4029 0.1524,0.1524"/><path id="path1193" d="m 173.4692,72.5553 0.0762,0.1523"/><path id="path1194" d="m 173.5454,72.7076 v 0.3048"/><path id="path1195" d="m 173.5454,73.0124 -0.0762,0.1524"/><path id="path1196" d="m 173.4692,73.1648 -0.1524,0.1524"/><path id="path1197" d="m 173.3168,73.3172 -0.3047,0.0761"/><path id="path1198" d="m 173.0121,73.3933 h -0.5334"/><path id="path1199" d="M 172.4787,73.3933 172.174,73.3172"/><path id="path1200" d="m 172.174,73.3172 -0.1524,-0.1524"/><path id="path1201" d="m 172.0216,73.1648 -0.0762,-0.1524"/><path id="path1202" d="M 172.7073,71.1076 V 71.641"/><path id="path1203" d="m 173.5454,71.641 h -1.6"/><path id="path1204" d="M 171.9454,71.641 V 70.8791"/><path id="path1205" d="m 172.7073,69.7362 v 0.5333"/><path id="path1206" d="m 173.5454,70.2695 h -1.6"/><path id="path1207" d="M 171.9454,70.2695 V 69.5076"/></g><g style="fill:none;stroke:#008484;stroke-width:.12;stroke-linecap:round;stroke-linejoin:round;stroke-opacity:1" id="g1215" transform="translate(-101.6004,-47.222)"><path id="path1208" d="m 173.7614,66.3448 h -2.0066"/><path id="path1209" d="M 177.1396,83.8708 173.736,82.0674"/><path id="path1210" d="m 173.736,79.502 3.4036,4.3688"/><path id="path1211" d="m 168.1226,83.8708 3.6576,-1.8034"/><path id="path1212" d="m 171.8056,79.2734 -3.683,4.5974"/><path id="path1213" d="m 172.593,86.9188 0.3556,-2.7432"/><path id="path1214" d="m 172.3136,84.1502 0.2794,2.7686"/><path style="fill:#008484;fill-opacity:1;fill-rule:evenodd;stroke:none" id="path1215" d="m 172.9486,84.1502 -0.3556,0.7874 -0.3048,-0.762 v -0.0254 l 0.3048,-0.4318 z"/></g><g style="fill:none;stroke:#008484;stroke-width:.1;stroke-linecap:round;stroke-linejoin:round;stroke-opacity:1" id="g1220" transform="translate(-101.6004,-47.222)"><path id="path1216" d="m 172.9486,84.1502 -0.3556,0.7874"/><path id="path1217" d="m 172.593,84.9376 -0.3048,-0.762"/><path id="path1218" d="M 172.2882,84.1756 V 84.1502"/><path id="path1219" d="m 172.2882,84.1502 0.3048,-0.4318"/><path id="path1220" d="m 172.593,83.7184 0.3556,0.4318"/></g><g style="fill:none;stroke:#008484;stroke-width:.12;stroke-linecap:round;stroke-linejoin:round;stroke-opacity:1" id="g1242" transform="translate(-101.6004,-47.222)"><path id="path1221" d="m 172.6184,83.693 0.3302,0.4572"/><path id="path1222" d="m 172.3136,84.1756 0.3048,-0.4826"/><path id="path1223" d="m 172.593,84.9884 0.9906,-2.1844"/><path id="path1224" d="m 171.8564,82.804 0.7366,2.1844"/><path id="path1225" d="m 173.5836,82.804 -0.4318,-0.7366"/><path id="path1226" d="m 171.8564,82.804 h 1.7272"/><path id="path1227" d="m 172.2374,82.1182 -0.381,0.6858"/><path id="path1228" d="m 171.8056,82.1182 -0.0762,-15.748"/><path id="path1229" d="m 173.7106,82.0928 -1.905,0.0254"/><path id="path1230" d="m 173.7614,66.3448 -0.0508,15.748"/><path id="path1231" d="m 172.8978,64.3128 0.8636,2.032"/><path id="path1232" d="m 171.7294,66.3702 1.1684,-2.0574"/><path id="path1233" d="m 121.3104,101.8794 -7.9502,-8.509"/><path id="path1234" d="m 112.4712,102.2604 9.0932,-9.5758"/><path id="path1235" d="m 140.3858,75.4126 -2.5146,-2.54"/><path id="path1236" d="m 128.016,82.804 -14.097,3.0734"/><path id="path1237" d="m 113.8682,85.8774 11.1252,-0.0508"/><path id="path1238" d="M 127.4826,99.5934 130.429,85.471"/><path id="path1239" d="m 127.4318,88.4682 0.0508,11.1252"/><circle id="circle1239" cx="117.069" cy="96.977" r="8.36"/><path id="path1240" d="m 120.9294,92.202 2.0066,-2.8448"/><path id="path1241" d="m 123.952,90.2716 -3.0226,1.9304"/><path style="fill:#008484;fill-opacity:1;fill-rule:evenodd;stroke:none" id="path1242" d="m 123.952,90.2716 -1.524,0.4318 0.4826,-1.3462 h 1.0414 z"/></g><g style="fill:none;stroke:#008484;stroke-width:.1;stroke-linecap:round;stroke-linejoin:round;stroke-opacity:1" id="g1246" transform="translate(-101.6004,-47.222)"><path id="path1243" d="m 123.952,90.2716 -1.524,0.4318"/><path id="path1244" d="m 122.428,90.7034 0.4826,-1.3462"/><path id="path1245" d="m 122.9106,89.3572 h 1.0414"/><path id="path1246" d="m 123.952,89.3572 v 0.9144"/></g><g style="fill:none;stroke:#008484;stroke-width:.12;stroke-linecap:round;stroke-linejoin:round;stroke-opacity:1" id="g1258" transform="translate(-101.6004,-47.222)"><path id="path1247" d="m 123.952,89.3572 h -1.016"/><path id="path1248" d="M 123.952,90.2716 V 89.3572"/><path id="path1249" d="m 122.428,90.7034 3.937,-1.1176"/><path id="path1250" d="m 123.7742,86.9442 -1.3462,3.7592"/><path id="path1251" d="m 126.365,89.5858 0.0762,-1.2446"/><path id="path1252" d="m 123.7742,86.9188 2.5908,2.667"/><path id="path1253" d="m 125.0442,86.9188 h -1.27"/><path id="path1254" d="m 132.08,78.74 2.5654,-2.54"/><path id="path1255" d="m 137.16,78.74 -2.5654,2.54"/><path id="path1256" d="m 124.46,86.36 7.62,-7.62"/><path id="path1257" d="m 127,88.9 -2.54,-2.54"/><path id="path1258" d="M 134.5946,81.28 127,88.9"/></g><g style="fill:none;stroke:#008484;stroke-width:.15;stroke-linecap:round;stroke-linejoin:round;stroke-opacity:1" id="g1309" transform="translate(-101.6004,-47.222)"><path id="path1259" d="m 169.5357,98.7504 -0.3334,-0.4762"/><path id="path1260" d="m 168.9642,98.7504 v -1"/><path id="path1261" d="m 168.9642,97.7504 h 0.381"/><path id="path1262" d="m 169.3452,97.7504 0.0952,0.0476"/><path id="path1263" d="m 169.4404,97.798 0.0476,0.0476"/><path id="path1264" d="m 169.488,97.8456 0.0477,0.0953"/><path id="path1265" d="m 169.5357,97.9409 v 0.1428"/><path id="path1266" d="M 169.5357,98.0837 169.488,98.179"/><path id="path1267" d="m 169.488,98.179 -0.0476,0.0476"/><path id="path1268" d="m 169.4404,98.2266 -0.0952,0.0476"/><path id="path1269" d="m 169.3452,98.2742 h -0.381"/><path id="path1270" d="m 169.9166,98.4647 h 0.4762"/><path id="path1271" d="m 169.8214,98.7504 0.3333,-1"/><path id="path1272" d="m 170.1547,97.7504 0.3333,1"/><path id="path1273" d="m 170.8214,98.7504 v -1"/><path id="path1274" d="m 170.8214,97.7504 h 0.2381"/><path id="path1275" d="m 171.0595,97.7504 0.1428,0.0476"/><path id="path1276" d="m 171.2023,97.798 0.0953,0.0952"/><path id="path1277" d="m 171.2976,97.8932 0.0476,0.0953"/><path id="path1278" d="m 171.3452,97.9885 0.0476,0.1905"/><path id="path1279" d="m 171.3928,98.179 v 0.1428"/><path id="path1280" d="m 171.3928,98.3218 -0.0476,0.1905"/><path id="path1281" d="m 171.3452,98.5123 -0.0476,0.0952"/><path id="path1282" d="m 171.2976,98.6075 -0.0953,0.0953"/><path id="path1283" d="m 171.2023,98.7028 -0.1428,0.0476"/><path id="path1284" d="m 171.0595,98.7504 h -0.2381"/><path id="path1285" d="m 171.8214,98.7504 v -1"/><path id="path1286" d="m 172.488,97.7504 h 0.1905"/><path id="path1287" d="m 172.6785,97.7504 0.0952,0.0476"/><path id="path1288" d="m 172.7737,97.798 0.0953,0.0952"/><path id="path1289" d="m 172.869,97.8932 0.0476,0.1905"/><path id="path1290" d="M 172.9166,98.0837 V 98.417"/><path id="path1291" d="m 172.9166,98.417 -0.0476,0.1905"/><path id="path1292" d="m 172.869,98.6075 -0.0953,0.0953"/><path id="path1293" d="m 172.7737,98.7028 -0.0952,0.0476"/><path id="path1294" d="M 172.6785,98.7504 H 172.488"/><path id="path1295" d="m 172.488,98.7504 -0.0952,-0.0476"/><path id="path1296" d="m 172.3928,98.7028 -0.0952,-0.0953"/><path id="path1297" d="M 172.2976,98.6075 172.2499,98.417"/><path id="path1298" d="M 172.2499,98.417 V 98.0837"/><path id="path1299" d="m 172.2499,98.0837 0.0477,-0.1905"/><path id="path1300" d="m 172.2976,97.8932 0.0952,-0.0952"/><path id="path1301" d="m 172.3928,97.798 0.0952,-0.0476"/><path id="path1302" d="m 120.9517,102.297 0.6666,1"/><path id="path1303" d="m 121.6183,102.297 -0.6666,1"/><path id="path1304" d="m 124.2314,104.4972 v 0.4762"/><path id="path1305" d="m 123.8981,103.9734 0.3333,0.5238"/><path id="path1306" d="m 124.2314,104.4972 0.3333,-0.5238"/><path id="path1307" d="m 123.9743,101.789 h 0.6666"/><path id="path1308" d="m 124.6409,101.789 -0.6666,1"/><path id="path1309" d="m 123.9743,102.789 h 0.6666"/></g><g style="fill:none;stroke:#008484;stroke-width:.12;stroke-linecap:round;stroke-linejoin:round;stroke-opacity:1" id="g1327" transform="translate(-101.6004,-47.222)"><path id="path1310" d="m 123.4186,103.759 0.1016,-0.1524"/><path id="path1311" d="m 123.4186,103.759 0.127,0.1524"/><circle id="circle1311" cx="123.444" cy="103.454" r=".307"/><path id="path1312" d="m 123.5456,103.9114 -0.127,-0.1524"/><path id="path1313" d="m 123.0122,102.8192 0.1016,-0.1524"/><path id="path1314" d="m 123.0122,102.8192 0.127,0.1524"/><circle id="circle1314" cx="123.038" cy="102.514" r=".307"/><path id="path1315" d="m 123.1392,102.9716 -0.127,-0.1524"/><path id="path1316" d="m 121.7422,102.0064 0.1524,0.1016"/><path id="path1317" d="m 121.5898,102.1334 0.1524,-0.127"/><path id="path1318" d="m 121.7422,102.0064 -0.1524,0.127"/><circle id="circle1318" cx="122.047" cy="102.032" r=".307"/><path id="path1319" d="m 122.047,100.7364 0.381,0.3556"/><path id="path1320" d="m 122.047,100.7364 -0.4064,0.381"/><path id="path1321" d="m 124.6886,103.4542 -0.3556,0.3556"/><path id="path1322" d="m 124.6886,103.4542 -0.3556,-0.4064"/><path id="path1323" d="m 123.7996,101.7524 v 0.4318"/><path id="path1324" d="m 123.7996,101.7524 h -0.4572"/><path id="path1325" d="m 122.0724,103.4288 1.7272,-1.6764"/><path id="path1326" d="m 122.047,103.4542 h 2.6416"/><path id="path1327" d="m 122.047,100.7618 v 2.6924"/></g><g style="fill:none;stroke:#008484;stroke-width:.3;stroke-linecap:round;stroke-linejoin:round;stroke-opacity:1" id="g1402" transform="translate(-101.6004,-47.222)"><path id="path1328" d="m 163.1212,128.6845 h 1.7143"/><path id="path1329" d="m 163.9783,131.6845 v -3"/><path id="path1330" d="m 165.8355,130.1131 h 1"/><path id="path1331" d="m 167.2641,131.6845 h -1.4286"/><path id="path1332" d="m 165.8355,131.6845 v -3"/><path id="path1333" d="m 165.8355,128.6845 h 1.4286"/><path id="path1334" d="m 169.9783,131.6845 h -1.4285"/><path id="path1335" d="m 168.5498,131.6845 v -3"/><path id="path1336" d="m 170.9783,130.1131 h 1"/><path id="path1337" d="m 172.4069,131.6845 h -1.4286"/><path id="path1338" d="m 170.9783,131.6845 v -3"/><path id="path1339" d="m 170.9783,128.6845 h 1.4286"/><path id="path1340" d="m 173.6926,131.6845 v -3"/><path id="path1341" d="m 173.6926,128.6845 1,2.1429"/><path id="path1342" d="m 174.6926,130.8274 1,-2.1429"/><path id="path1343" d="m 175.6926,128.6845 v 3"/><path id="path1344" d="m 140.9706,126.1727 v -3"/><path id="path1345" d="m 140.9706,123.1727 1,2.1429"/><path id="path1346" d="m 141.9706,125.3156 1,-2.1429"/><path id="path1347" d="m 142.9706,123.1727 v 3"/><path id="path1348" d="m 144.2563,125.3156 h 1.4286"/><path id="path1349" d="m 143.9706,126.1727 1,-3"/><path id="path1350" d="m 144.9706,123.1727 1,3"/><path id="path1351" d="m 146.9706,126.1727 v -3"/><path id="path1352" d="m 148.3991,126.1727 v -3"/><path id="path1353" d="m 148.3991,123.1727 1.7143,3"/><path id="path1354" d="m 150.1134,126.1727 v -3"/><path id="path1355" d="m 118.4406,131.6845 v -3"/><path id="path1356" d="m 118.4406,128.6845 1.7143,3"/><path id="path1357" d="m 120.1549,131.6845 v -3"/><path id="path1358" d="m 121.4406,130.8274 h 1.4286"/><path id="path1359" d="m 121.1549,131.6845 1,-3"/><path id="path1360" d="m 122.1549,128.6845 1,3"/><path id="path1361" d="m 123.7263,128.6845 1,3"/><path id="path1362" d="m 124.7263,131.6845 1,-3"/><path id="path1363" d="m 141.5357,75.7857 0.7143,2"/><path id="path1364" d="m 142.25,77.7857 0.7143,-2"/><path id="path1365" d="m 144.6785,74.7857 h 0.2858"/><path id="path1366" d="m 144.9643,74.7857 0.2857,0.1429"/><path id="path1367" d="m 145.25,74.9286 0.1428,0.1429"/><path id="path1368" d="m 145.3928,75.0715 0.1429,0.2857"/><path id="path1369" d="m 145.5357,75.3572 0.1428,0.5714"/><path id="path1370" d="m 145.6785,75.9286 v 0.7143"/><path id="path1371" d="m 145.6785,76.6429 -0.1428,0.5714"/><path id="path1372" d="M 145.5357,77.2143 145.3928,77.5"/><path id="path1373" d="M 145.3928,77.5 145.25,77.6429"/><path id="path1374" d="m 145.25,77.6429 -0.2857,0.1428"/><path id="path1375" d="m 144.9643,77.7857 h -0.2858"/><path id="path1376" d="m 144.6785,77.7857 -0.2857,-0.1428"/><path id="path1377" d="M 144.3928,77.6429 144.25,77.5"/><path id="path1378" d="m 144.25,77.5 -0.1429,-0.2857"/><path id="path1379" d="m 144.1071,77.2143 -0.1428,-0.5714"/><path id="path1380" d="M 143.9643,76.6429 V 75.9286"/><path id="path1381" d="m 143.9643,75.9286 0.1428,-0.5714"/><path id="path1382" d="M 144.1071,75.3572 144.25,75.0715"/><path id="path1383" d="m 144.25,75.0715 0.1428,-0.1429"/><path id="path1384" d="m 144.3928,74.9286 0.2857,-0.1429"/><path id="path1385" d="m 146.9643,77.5 0.1428,0.1429"/><path id="path1386" d="m 147.1071,77.6429 -0.1428,0.1428"/><path id="path1387" d="m 146.9643,77.7857 -0.1429,-0.1428"/><path id="path1388" d="M 146.8214,77.6429 146.9643,77.5"/><path id="path1389" d="m 146.9643,77.5 v 0.2857"/><path id="path1390" d="m 148.1071,74.7857 h 1.8572"/><path id="path1391" d="m 149.9643,74.7857 -1,1.1429"/><path id="path1392" d="m 148.9643,75.9286 h 0.4285"/><path id="path1393" d="m 149.3928,75.9286 0.2857,0.1429"/><path id="path1394" d="m 149.6785,76.0715 0.1429,0.1428"/><path id="path1395" d="M 149.8214,76.2143 149.9643,76.5"/><path id="path1396" d="m 149.9643,76.5 v 0.7143"/><path id="path1397" d="M 149.9643,77.2143 149.8214,77.5"/><path id="path1398" d="m 149.8214,77.5 -0.1429,0.1429"/><path id="path1399" d="m 149.6785,77.6429 -0.2857,0.1428"/><path id="path1400" d="m 149.3928,77.7857 h -0.8571"/><path id="path1401" d="M 148.5357,77.7857 148.25,77.6429"/><path id="path1402" d="M 148.25,77.6429 148.1071,77.5"/></g><g style="fill:none;stroke:#008484;stroke-width:1;stroke-linecap:round;stroke-linejoin:round;stroke-opacity:1" id="g1432" transform="translate(-101.6004,-47.222)"><path id="path1403" d="m 130.9881,71.4673 h -3.3334"/><path id="path1404" d="m 127.6547,71.4673 v -7"/><path id="path1405" d="m 133.3214,71.4673 v -7"/><path id="path1406" d="m 138.9881,67.8006 h -2.3334"/><path id="path1407" d="m 136.6547,71.4673 v -7"/><path id="path1408" d="m 136.6547,64.4673 h 3.3334"/><path id="path1409" d="m 141.6547,64.4673 h 4"/><path id="path1410" d="m 143.6547,71.4673 v -7"/><path id="path1411" d="m 149.3214,64.4673 h 1.3333"/><path id="path1412" d="m 150.6547,64.4673 0.6667,0.3333"/><path id="path1413" d="m 151.3214,64.8006 0.6667,0.6667"/><path id="path1414" d="m 151.9881,65.4673 0.3333,1.3333"/><path id="path1415" d="m 152.3214,66.8006 v 2.3333"/><path id="path1416" d="m 152.3214,69.1339 -0.3333,1.3334"/><path id="path1417" d="m 151.9881,70.4673 -0.6667,0.6666"/><path id="path1418" d="m 151.3214,71.1339 -0.6667,0.3334"/><path id="path1419" d="m 150.6547,71.4673 h -1.3333"/><path id="path1420" d="m 149.3214,71.4673 -0.6667,-0.3334"/><path id="path1421" d="m 148.6547,71.1339 -0.6666,-0.6666"/><path id="path1422" d="m 147.9881,70.4673 -0.3334,-1.3334"/><path id="path1423" d="M 147.6547,69.1339 V 66.8006"/><path id="path1424" d="m 147.6547,66.8006 0.3334,-1.3333"/><path id="path1425" d="m 147.9881,65.4673 0.6666,-0.6667"/><path id="path1426" d="m 148.6547,64.8006 0.6667,-0.3333"/><path id="path1427" d="m 157.6547,67.8006 h -2.3333"/><path id="path1428" d="m 155.3214,71.4673 v -7"/><path id="path1429" d="m 155.3214,64.4673 h 3.3333"/><path id="path1430" d="m 163.6547,67.8006 h -2.3333"/><path id="path1431" d="m 161.3214,71.4673 v -7"/><path id="path1432" d="m 161.3214,64.4673 h 3.3333"/></g><g style="fill:none;stroke:#008484;stroke-width:.12;stroke-linecap:round;stroke-linejoin:round;stroke-opacity:1" id="g1635" transform="translate(-101.6004,-47.222)"><path id="path1433" d="m 124.9839,76.179 h 1.4542"/><path id="path1434" d="m 124.9839,77.999 h 1.4542"/><path id="path1435" d="m 119.0339,79.469 h 1.4542"/><path id="path1436" d="m 119.0339,81.289 h 1.4542"/><path id="path1437" d="m 119.0339,76.179 h 1.4542"/><path id="path1438" d="m 119.0339,77.999 h 1.4542"/><path id="path1439" d="m 179.2571,118.072 0.495,-0.495"/><path id="path1440" d="m 179.7521,117.577 -0.495,-0.495"/><path id="path1441" d="m 170.192,127.1371 -0.495,0.495"/><path id="path1442" d="m 169.697,127.6321 -0.495,-0.495"/><path id="path1443" d="m 169.202,108.0169 0.495,-0.495"/><path id="path1444" d="m 169.697,107.5219 0.495,0.495"/><path id="path1445" d="m 160.1369,117.082 -0.495,0.495"/><path id="path1446" d="m 159.6419,117.577 0.495,0.495"/><path id="path1447" d="m 160.1369,118.072 -0.9652,0.9652"/><path id="path1448" d="m 159.4469,109.1047 0.6718,-0.6717"/><path id="path1449" d="m 160.1187,108.433 -0.6718,-0.6718"/><path id="path1450" d="m 146.4928,122.0589 -0.6718,0.6718"/><path id="path1451" d="m 145.821,122.7307 -0.6718,-0.6718"/><path id="path1452" d="m 145.1492,94.807 0.6718,-0.6717"/><path id="path1453" d="m 145.821,94.1353 0.6718,0.6717"/><path id="path1454" d="m 132.195,107.7612 -0.6717,0.6718"/><path id="path1455" d="m 131.5233,108.433 0.6717,0.6717"/><path id="path1456" d="m 132.195,109.1047 -0.9121,0.9122"/><path id="path1457" d="m 121.45,127.1371 0.495,0.495"/><path id="path1458" d="m 121.945,127.6321 0.495,-0.495"/><path id="path1459" d="m 112.3849,118.072 -0.495,-0.495"/><path id="path1460" d="m 111.8899,117.577 0.495,-0.495"/><path id="path1461" d="m 131.5051,117.082 0.495,0.495"/><path id="path1462" d="m 132.0001,117.577 -0.495,0.495"/><path id="path1463" d="m 122.44,108.0169 -0.495,-0.495"/><path id="path1464" d="m 121.945,107.5219 -0.495,0.495"/><path id="path1465" d="m 121.45,108.0169 -0.9652,-0.9652"/><path id="path1466" d="m 106.301,86.4646 v 0.2"/><path id="path1467" d="m 102.161,83.6646 -0.21,0.2"/><path id="path1468" d="m 102.161,84.9646 -0.21,-0.2"/><path id="path1469" d="m 103.451,83.6646 h -1.29"/><path id="path1470" d="m 101.951,83.8646 v 0.9"/><path id="path1471" d="m 102.161,84.9646 h 1.29"/><path id="path1472" d="m 103.451,82.2146 v 5.7"/><path id="path1473" d="m 106.301,83.4646 v 1.7"/><path id="path1474" d="m 105.251,81.6146 h -0.79"/><path id="path1475" d="m 104.461,88.5146 h 0.79"/><path id="path1476" d="m 106.301,95.5846 v 0.2"/><path id="path1477" d="m 102.161,92.7846 -0.21,0.2"/><path id="path1478" d="m 102.161,94.0846 -0.21,-0.2"/><path id="path1479" d="m 103.451,92.7846 h -1.29"/><path id="path1480" d="m 101.951,92.9846 v 0.9"/><path id="path1481" d="m 102.161,94.0846 h 1.29"/><path id="path1482" d="m 103.451,91.3346 v 5.7"/><path id="path1483" d="m 106.301,92.5846 v 1.7"/><path id="path1484" d="m 105.251,90.7346 h -0.79"/><path id="path1485" d="m 104.461,97.6346 h 0.79"/><path id="path1486" d="m 140.127,123.9619 v 1.4542"/><path id="path1487" d="m 138.307,123.9619 v 1.4542"/><path id="path1488" d="m 132.9019,99.395 h 1.4542"/><path id="path1489" d="m 132.9019,101.215 h 1.4542"/><path id="path1490" d="m 150.079,145.831 h 2.66"/><path id="path1491" d="m 150.079,140.691 v 5.14"/><path id="path1492" d="m 152.739,140.691 v 5.14"/><path id="path1493" d="m 150.079,140.691 h 2.66"/><path id="path1494" d="m 150.079,139.421 v -1.33"/><path id="path1495" d="m 150.079,138.091 h 1.33"/><path id="path1496" d="m 146.523,145.831 h 2.66"/><path id="path1497" d="m 146.523,140.691 v 5.14"/><path id="path1498" d="m 149.183,140.691 v 5.14"/><path id="path1499" d="m 146.523,140.691 h 2.66"/><path id="path1500" d="m 146.523,139.421 v -1.33"/><path id="path1501" d="m 146.523,138.091 h 1.33"/><path id="path1502" d="m 142.459,145.831 h 2.66"/><path id="path1503" d="m 142.459,140.691 v 5.14"/><path id="path1504" d="m 145.119,140.691 v 5.14"/><path id="path1505" d="m 142.459,140.691 h 2.66"/><path id="path1506" d="m 142.459,139.421 v -1.33"/><path id="path1507" d="m 142.459,138.091 h 1.33"/><path id="path1508" d="m 138.903,145.831 h 2.66"/><path id="path1509" d="m 138.903,140.691 v 5.14"/><path id="path1510" d="m 141.563,140.691 v 5.14"/><path id="path1511" d="m 138.903,140.691 h 2.66"/><path id="path1512" d="m 138.903,139.421 v -1.33"/><path id="path1513" d="m 138.903,138.091 h 1.33"/><path id="path1514" d="m 142.459,135.671 h 2.66"/><path id="path1515" d="m 142.459,130.531 v 5.14"/><path id="path1516" d="m 145.119,130.531 v 5.14"/><path id="path1517" d="m 142.459,130.531 h 2.66"/><path id="path1518" d="m 142.459,129.261 v -1.33"/><path id="path1519" d="m 142.459,127.931 h 1.33"/><path id="path1520" d="m 146.523,135.671 h 2.66"/><path id="path1521" d="m 146.523,130.531 v 5.14"/><path id="path1522" d="m 149.183,130.531 v 5.14"/><path id="path1523" d="m 146.523,130.531 h 2.66"/><path id="path1524" d="m 146.523,129.261 v -1.33"/><path id="path1525" d="m 146.523,127.931 h 1.33"/><path id="path1526" d="m 132.419,50.2066 h -5.2"/><path id="path1527" d="m 132.419,60.4266 v -10.22"/><path id="path1528" d="m 127.219,63.0266 v -12.82"/><path id="path1529" d="m 132.419,60.4266 h -2.6"/><path id="path1530" d="m 129.819,60.4266 v 2.6"/><path id="path1531" d="m 129.819,63.0266 h -2.6"/><path id="path1532" d="m 132.419,61.6966 v 1.33"/><path id="path1533" d="m 132.419,63.0266 h -1.33"/><path id="path1534" d="m 126.323,50.2066 h -5.2"/><path id="path1535" d="m 126.323,60.4266 v -10.22"/><path id="path1536" d="m 121.123,63.0266 v -12.82"/><path id="path1537" d="m 126.323,60.4266 h -2.6"/><path id="path1538" d="m 123.723,60.4266 v 2.6"/><path id="path1539" d="m 123.723,63.0266 h -2.6"/><path id="path1540" d="m 126.323,61.6966 v 1.33"/><path id="path1541" d="m 126.323,63.0266 h -1.33"/><path id="path1542" d="m 161.255,60.4866 h 2.66"/><path id="path1543" d="m 161.255,52.8066 v 7.68"/><path id="path1544" d="m 163.915,52.8066 v 7.68"/><path id="path1545" d="m 161.255,52.8066 h 2.66"/><path id="path1546" d="m 161.255,51.5366 v -1.33"/><path id="path1547" d="m 161.255,50.2066 h 1.33"/><path id="path1548" d="m 151.603,60.4866 h 2.66"/><path id="path1549" d="m 151.603,52.8066 v 7.68"/><path id="path1550" d="m 154.263,52.8066 v 7.68"/><path id="path1551" d="m 151.603,52.8066 h 2.66"/><path id="path1552" d="m 151.603,51.5366 v -1.33"/><path id="path1553" d="m 151.603,50.2066 h 1.33"/><path id="path1554" d="m 107.071,103.117 h 0.45"/><path id="path1555" d="m 107.521,103.567 v -0.45"/><path id="path1556" d="m 106.841,101.117 v 0.42"/><path id="path1557" d="m 104.861,101.117 h 1.98"/><path id="path1558" d="m 102.491,101.117 h 0.4"/><path id="path1559" d="m 102.891,108.637 h -0.4"/><path id="path1560" d="m 106.841,108.637 v -0.42"/><path id="path1561" d="m 104.861,108.637 h 1.98"/><path id="path1562" d="m 162.779,99.483 v 2.66"/><path id="path1563" d="m 175.539,99.483 h -12.76"/><path id="path1564" d="m 175.539,102.143 h -12.76"/><path id="path1565" d="m 175.539,99.483 v 2.66"/><path id="path1566" d="m 176.809,99.483 h 1.33"/><path id="path1567" d="m 178.139,99.483 v 1.33"/><path id="path1568" d="m 169.383,60.4866 h 2.66"/><path id="path1569" d="m 169.383,52.8066 v 7.68"/><path id="path1570" d="m 172.043,52.8066 v 7.68"/><path id="path1571" d="m 169.383,52.8066 h 2.66"/><path id="path1572" d="m 169.383,51.5366 v -1.33"/><path id="path1573" d="m 169.383,50.2066 h 1.33"/><path id="path1574" d="m 107.071,112.261 h 0.45"/><path id="path1575" d="m 107.521,112.711 v -0.45"/><path id="path1576" d="m 106.841,110.261 v 0.42"/><path id="path1577" d="m 104.861,110.261 h 1.98"/><path id="path1578" d="m 102.491,110.261 h 0.4"/><path id="path1579" d="m 102.891,117.781 h -0.4"/><path id="path1580" d="m 106.841,117.781 v -0.42"/><path id="path1581" d="m 104.861,117.781 h 1.98"/><path id="path1582" d="m 165.319,60.4866 h 2.66"/><path id="path1583" d="m 165.319,52.8066 v 7.68"/><path id="path1584" d="m 167.979,52.8066 v 7.68"/><path id="path1585" d="m 165.319,52.8066 h 2.66"/><path id="path1586" d="m 165.319,51.5366 v -1.33"/><path id="path1587" d="m 165.319,50.2066 h 1.33"/><path id="path1588" d="m 148.047,60.4866 h 2.66"/><path id="path1589" d="m 148.047,52.8066 v 7.68"/><path id="path1590" d="m 150.707,52.8066 v 7.68"/><path id="path1591" d="m 148.047,52.8066 h 2.66"/><path id="path1592" d="m 148.047,51.5366 v -1.33"/><path id="path1593" d="m 148.047,50.2066 h 1.33"/><path id="path1594" d="m 139.919,63.0266 h 2.66"/><path id="path1595" d="m 139.919,52.8066 v 10.22"/><path id="path1596" d="m 142.579,52.8066 v 10.22"/><path id="path1597" d="m 139.919,52.8066 h 2.66"/><path id="path1598" d="m 139.919,51.5366 v -1.33"/><path id="path1599" d="m 139.919,50.2066 h 1.33"/><path id="path1600" d="m 120.227,50.2066 h -5.2"/><path id="path1601" d="m 120.227,60.4266 v -10.22"/><path id="path1602" d="m 115.027,63.0266 v -12.82"/><path id="path1603" d="m 120.227,60.4266 h -2.6"/><path id="path1604" d="m 117.627,60.4266 v 2.6"/><path id="path1605" d="m 117.627,63.0266 h -2.6"/><path id="path1606" d="m 120.227,61.6966 v 1.33"/><path id="path1607" d="m 120.227,63.0266 h -1.33"/><path id="path1608" d="m 107.071,121.405 h 0.45"/><path id="path1609" d="m 107.521,121.855 v -0.45"/><path id="path1610" d="m 106.841,119.405 v 0.42"/><path id="path1611" d="m 104.861,119.405 h 1.98"/><path id="path1612" d="m 102.491,119.405 h 0.4"/><path id="path1613" d="m 102.891,126.925 h -0.4"/><path id="path1614" d="m 106.841,126.925 v -0.42"/><path id="path1615" d="m 104.861,126.925 h 1.98"/><path id="path1616" d="m 114.529,66.1586 h -12.6"/><path id="path1617" d="m 101.929,66.1586 v 10.35"/><path id="path1618" d="m 101.929,76.5086 h 0.95"/><path id="path1619" d="m 102.879,76.5086 -0.25,0.5"/><path id="path1620" d="m 102.629,77.0086 h 1.9"/><path id="path1621" d="m 104.529,77.0086 h 0.05"/><path id="path1622" d="m 104.579,77.0086 -0.25,-0.5"/><path id="path1623" d="m 104.329,76.5086 h 5.4"/><path id="path1624" d="m 109.729,76.5086 -0.3,0.5"/><path id="path1625" d="m 109.429,77.0086 h 5.1"/><path id="path1626" d="m 114.529,77.0086 v -10.85"/><path id="path1627" d="m 167.147,85.2966 v 0.9"/><path id="path1628" d="m 167.147,88.8966 h 4.9"/><path id="path1629" d="m 172.047,85.2966 h -4.9"/><path id="path1630" d="m 143.271,85.8046 v 0.9"/><path id="path1631" d="m 143.271,89.4046 h 4.9"/><path id="path1632" d="m 148.171,85.8046 h -4.9"/><path id="path1633" d="m 119.395,85.8046 v 0.9"/><path id="path1634" d="m 119.395,89.4046 h 4.9"/><path id="path1635" d="m 124.295,85.8046 h -4.9"/></g><g style="fill:none;stroke:#008484;stroke-width:.15;stroke-linecap:round;stroke-linejoin:round;stroke-opacity:1" id="g2421" transform="translate(-101.6004,-47.222)"><path id="path1636" d="m 125.0681,75.7214 -0.3333,-0.4762"/><path id="path1637" d="m 124.4967,75.7214 v -1"/><path id="path1638" d="m 124.4967,74.7214 h 0.381"/><path id="path1639" d="m 124.8777,74.7214 0.0952,0.0476"/><path id="path1640" d="m 124.9729,74.769 0.0476,0.0476"/><path id="path1641" d="m 125.0205,74.8166 0.0476,0.0953"/><path id="path1642" d="m 125.0681,74.9119 v 0.1428"/><path id="path1643" d="m 125.0681,75.0547 -0.0476,0.0952"/><path id="path1644" d="m 125.0205,75.1499 -0.0476,0.0477"/><path id="path1645" d="m 124.9729,75.1976 -0.0952,0.0476"/><path id="path1646" d="m 124.8777,75.2452 h -0.381"/><path id="path1647" d="m 125.9729,74.7214 h -0.4762"/><path id="path1648" d="m 125.4967,74.7214 -0.0476,0.4762"/><path id="path1649" d="m 125.4491,75.1976 0.0476,-0.0477"/><path id="path1650" d="m 125.4967,75.1499 0.0952,-0.0476"/><path id="path1651" d="M 125.5919,75.1023 H 125.83"/><path id="path1652" d="m 125.83,75.1023 0.0953,0.0476"/><path id="path1653" d="m 125.9253,75.1499 0.0476,0.0477"/><path id="path1654" d="m 125.9729,75.1976 0.0476,0.0952"/><path id="path1655" d="m 126.0205,75.2928 v 0.2381"/><path id="path1656" d="m 126.0205,75.5309 -0.0476,0.0952"/><path id="path1657" d="m 125.9729,75.6261 -0.0476,0.0477"/><path id="path1658" d="M 125.9253,75.6738 125.83,75.7214"/><path id="path1659" d="m 125.83,75.7214 h -0.2381"/><path id="path1660" d="m 125.5919,75.7214 -0.0952,-0.0476"/><path id="path1661" d="m 125.4967,75.6738 -0.0476,-0.0477"/><path id="path1662" d="m 126.5919,75.1499 -0.0952,-0.0476"/><path id="path1663" d="m 126.4967,75.1023 -0.0476,-0.0476"/><path id="path1664" d="m 126.4491,75.0547 -0.0476,-0.0952"/><path id="path1665" d="M 126.4015,74.9595 V 74.9119"/><path id="path1666" d="m 126.4015,74.9119 0.0476,-0.0953"/><path id="path1667" d="m 126.4491,74.8166 0.0476,-0.0476"/><path id="path1668" d="m 126.4967,74.769 0.0952,-0.0476"/><path id="path1669" d="m 126.5919,74.7214 h 0.1905"/><path id="path1670" d="m 126.7824,74.7214 0.0953,0.0476"/><path id="path1671" d="m 126.8777,74.769 0.0476,0.0476"/><path id="path1672" d="m 126.9253,74.8166 0.0476,0.0953"/><path id="path1673" d="m 126.9729,74.9119 v 0.0476"/><path id="path1674" d="m 126.9729,74.9595 -0.0476,0.0952"/><path id="path1675" d="m 126.9253,75.0547 -0.0476,0.0476"/><path id="path1676" d="m 126.8777,75.1023 -0.0953,0.0476"/><path id="path1677" d="m 126.7824,75.1499 h -0.1905"/><path id="path1678" d="m 126.5919,75.1499 -0.0952,0.0477"/><path id="path1679" d="m 126.4967,75.1976 -0.0476,0.0476"/><path id="path1680" d="m 126.4491,75.2452 -0.0476,0.0952"/><path id="path1681" d="m 126.4015,75.3404 v 0.1905"/><path id="path1682" d="m 126.4015,75.5309 0.0476,0.0952"/><path id="path1683" d="m 126.4491,75.6261 0.0476,0.0477"/><path id="path1684" d="m 126.4967,75.6738 0.0952,0.0476"/><path id="path1685" d="m 126.5919,75.7214 h 0.1905"/><path id="path1686" d="m 126.7824,75.7214 0.0953,-0.0476"/><path id="path1687" d="m 126.8777,75.6738 0.0476,-0.0477"/><path id="path1688" d="m 126.9253,75.6261 0.0476,-0.0952"/><path id="path1689" d="M 126.9729,75.5309 V 75.3404"/><path id="path1690" d="m 126.9729,75.3404 -0.0476,-0.0952"/><path id="path1691" d="m 126.9253,75.2452 -0.0476,-0.0476"/><path id="path1692" d="m 126.8777,75.1976 -0.0953,-0.0477"/><path id="path1693" d="m 119.1181,79.0114 -0.3333,-0.4762"/><path id="path1694" d="m 118.5467,79.0114 v -1"/><path id="path1695" d="m 118.5467,78.0114 h 0.381"/><path id="path1696" d="m 118.9277,78.0114 0.0952,0.0476"/><path id="path1697" d="m 119.0229,78.059 0.0476,0.0476"/><path id="path1698" d="m 119.0705,78.1066 0.0476,0.0953"/><path id="path1699" d="m 119.1181,78.2019 v 0.1428"/><path id="path1700" d="m 119.1181,78.3447 -0.0476,0.0952"/><path id="path1701" d="m 119.0705,78.4399 -0.0476,0.0477"/><path id="path1702" d="m 119.0229,78.4876 -0.0952,0.0476"/><path id="path1703" d="m 118.9277,78.5352 h -0.381"/><path id="path1704" d="m 120.0229,78.0114 h -0.4762"/><path id="path1705" d="m 119.5467,78.0114 -0.0476,0.4762"/><path id="path1706" d="m 119.4991,78.4876 0.0476,-0.0477"/><path id="path1707" d="m 119.5467,78.4399 0.0952,-0.0476"/><path id="path1708" d="M 119.6419,78.3923 H 119.88"/><path id="path1709" d="m 119.88,78.3923 0.0953,0.0476"/><path id="path1710" d="m 119.9753,78.4399 0.0476,0.0477"/><path id="path1711" d="m 120.0229,78.4876 0.0476,0.0952"/><path id="path1712" d="m 120.0705,78.5828 v 0.2381"/><path id="path1713" d="m 120.0705,78.8209 -0.0476,0.0952"/><path id="path1714" d="m 120.0229,78.9161 -0.0476,0.0477"/><path id="path1715" d="M 119.9753,78.9638 119.88,79.0114"/><path id="path1716" d="m 119.88,79.0114 h -0.2381"/><path id="path1717" d="m 119.6419,79.0114 -0.0952,-0.0476"/><path id="path1718" d="m 119.5467,78.9638 -0.0476,-0.0477"/><path id="path1719" d="m 120.4039,78.0114 h 0.6666"/><path id="path1720" d="m 121.0705,78.0114 -0.4286,1"/><path id="path1721" d="m 119.1181,75.7214 -0.3333,-0.4762"/><path id="path1722" d="m 118.5467,75.7214 v -1"/><path id="path1723" d="m 118.5467,74.7214 h 0.381"/><path id="path1724" d="m 118.9277,74.7214 0.0952,0.0476"/><path id="path1725" d="m 119.0229,74.769 0.0476,0.0476"/><path id="path1726" d="m 119.0705,74.8166 0.0476,0.0953"/><path id="path1727" d="m 119.1181,74.9119 v 0.1428"/><path id="path1728" d="m 119.1181,75.0547 -0.0476,0.0952"/><path id="path1729" d="m 119.0705,75.1499 -0.0476,0.0477"/><path id="path1730" d="m 119.0229,75.1976 -0.0952,0.0476"/><path id="path1731" d="m 118.9277,75.2452 h -0.381"/><path id="path1732" d="m 120.0229,74.7214 h -0.4762"/><path id="path1733" d="m 119.5467,74.7214 -0.0476,0.4762"/><path id="path1734" d="m 119.4991,75.1976 0.0476,-0.0477"/><path id="path1735" d="m 119.5467,75.1499 0.0952,-0.0476"/><path id="path1736" d="M 119.6419,75.1023 H 119.88"/><path id="path1737" d="m 119.88,75.1023 0.0953,0.0476"/><path id="path1738" d="m 119.9753,75.1499 0.0476,0.0477"/><path id="path1739" d="m 120.0229,75.1976 0.0476,0.0952"/><path id="path1740" d="m 120.0705,75.2928 v 0.2381"/><path id="path1741" d="m 120.0705,75.5309 -0.0476,0.0952"/><path id="path1742" d="m 120.0229,75.6261 -0.0476,0.0477"/><path id="path1743" d="M 119.9753,75.6738 119.88,75.7214"/><path id="path1744" d="m 119.88,75.7214 h -0.2381"/><path id="path1745" d="m 119.6419,75.7214 -0.0952,-0.0476"/><path id="path1746" d="m 119.5467,75.6738 -0.0476,-0.0477"/><path id="path1747" d="m 120.9277,74.7214 h -0.1905"/><path id="path1748" d="m 120.7372,74.7214 -0.0953,0.0476"/><path id="path1749" d="m 120.6419,74.769 -0.0476,0.0476"/><path id="path1750" d="m 120.5943,74.8166 -0.0952,0.1429"/><path id="path1751" d="m 120.4991,74.9595 -0.0476,0.1904"/><path id="path1752" d="m 120.4515,75.1499 v 0.381"/><path id="path1753" d="m 120.4515,75.5309 0.0476,0.0952"/><path id="path1754" d="m 120.4991,75.6261 0.0476,0.0477"/><path id="path1755" d="m 120.5467,75.6738 0.0952,0.0476"/><path id="path1756" d="m 120.6419,75.7214 h 0.1905"/><path id="path1757" d="m 120.8324,75.7214 0.0953,-0.0476"/><path id="path1758" d="m 120.9277,75.6738 0.0476,-0.0477"/><path id="path1759" d="m 120.9753,75.6261 0.0476,-0.0952"/><path id="path1760" d="M 121.0229,75.5309 V 75.2928"/><path id="path1761" d="m 121.0229,75.2928 -0.0476,-0.0952"/><path id="path1762" d="m 120.9753,75.1976 -0.0476,-0.0477"/><path id="path1763" d="m 120.9277,75.1499 -0.0953,-0.0476"/><path id="path1764" d="m 120.8324,75.1023 h -0.1905"/><path id="path1765" d="m 120.6419,75.1023 -0.0952,0.0476"/><path id="path1766" d="m 120.5467,75.1499 -0.0476,0.0477"/><path id="path1767" d="m 120.4991,75.1976 -0.0476,0.0952"/><path id="path1768" d="m 162.1101,111.0676 0.5724,0.5724"/><path id="path1769" d="m 162.6825,111.64 0.101,0.0337"/><path id="path1770" d="m 162.7835,111.6737 h 0.0674"/><path id="path1771" d="m 162.8509,111.6737 0.101,-0.0337"/><path id="path1772" d="m 162.9519,111.64 0.1347,-0.1347"/><path id="path1773" d="m 163.0866,111.5053 0.0336,-0.101"/><path id="path1774" d="M 163.1202,111.4043 V 111.337"/><path id="path1775" d="m 163.1202,111.337 -0.0336,-0.1011"/><path id="path1776" d="m 163.0866,111.2359 -0.5725,-0.5724"/><path id="path1777" d="m 163.2549,110.5288 -0.101,0.0337"/><path id="path1778" d="m 163.1539,110.5625 h -0.0673"/><path id="path1779" d="m 163.0866,110.5625 -0.1011,-0.0337"/><path id="path1780" d="m 162.9855,110.5288 -0.0336,-0.0336"/><path id="path1781" d="m 162.9519,110.4952 -0.0337,-0.1011"/><path id="path1782" d="m 162.9182,110.3941 v -0.0673"/><path id="path1783" d="m 162.9182,110.3268 0.0337,-0.101"/><path id="path1784" d="m 162.9519,110.2258 0.1347,-0.1347"/><path id="path1785" d="m 163.0866,110.0911 0.101,-0.0337"/><path id="path1786" d="m 163.1876,110.0574 h 0.0673"/><path id="path1787" d="m 163.2549,110.0574 0.101,0.0337"/><path id="path1788" d="m 163.3559,110.0911 0.0337,0.0337"/><path id="path1789" d="m 163.3896,110.1248 0.0337,0.101"/><path id="path1790" d="m 163.4233,110.2258 v 0.0673"/><path id="path1791" d="m 163.4233,110.2931 -0.0337,0.101"/><path id="path1792" d="m 163.3896,110.3941 -0.1347,0.1347"/><path id="path1793" d="m 163.2549,110.5288 -0.0337,0.101"/><path id="path1794" d="m 163.2212,110.6298 v 0.0674"/><path id="path1795" d="m 163.2212,110.6972 0.0337,0.101"/><path id="path1796" d="m 163.2549,110.7982 0.1347,0.1347"/><path id="path1797" d="m 163.3896,110.9329 0.101,0.0337"/><path id="path1798" d="m 163.4906,110.9666 h 0.0674"/><path id="path1799" d="m 163.558,110.9666 0.101,-0.0337"/><path id="path1800" d="m 163.659,110.9329 0.1347,-0.1347"/><path id="path1801" d="m 163.7937,110.7982 0.0336,-0.101"/><path id="path1802" d="m 163.8273,110.6972 v -0.0674"/><path id="path1803" d="m 163.8273,110.6298 -0.0336,-0.101"/><path id="path1804" d="m 163.7937,110.5288 -0.1347,-0.1347"/><path id="path1805" d="m 163.659,110.3941 -0.101,-0.0336"/><path id="path1806" d="m 163.558,110.3605 h -0.0674"/><path id="path1807" d="m 163.4906,110.3605 -0.101,0.0336"/><path id="path1808" d="m 136.1623,99.8517 0.5724,0.5725"/><path id="path1809" d="m 136.7347,100.4242 0.101,0.0336"/><path id="path1810" d="m 136.8357,100.4578 h 0.0673"/><path id="path1811" d="m 136.903,100.4578 0.1011,-0.0336"/><path id="path1812" d="m 137.0041,100.4242 0.1346,-0.1347"/><path id="path1813" d="m 137.1387,100.2895 0.0337,-0.101"/><path id="path1814" d="m 137.1724,100.1885 v -0.0674"/><path id="path1815" d="m 137.1724,100.1211 -0.0337,-0.101"/><path id="path1816" d="m 137.1387,100.0201 -0.5724,-0.5724"/><path id="path1817" d="m 136.8357,99.1783 0.4714,-0.4714"/><path id="path1818" d="m 137.3071,98.7069 0.4041,1.0102"/><path id="path1819" d="m 128.4544,109.9901 -0.5724,0.5724"/><path id="path1820" d="m 127.882,110.5625 -0.0337,0.101"/><path id="path1821" d="m 127.8483,110.6635 v 0.0674"/><path id="path1822" d="m 127.8483,110.7309 0.0337,0.101"/><path id="path1823" d="m 127.882,110.8319 0.1347,0.1347"/><path id="path1824" d="m 128.0167,110.9666 0.101,0.0336"/><path id="path1825" d="m 128.1177,111.0002 h 0.0673"/><path id="path1826" d="m 128.185,111.0002 0.1011,-0.0336"/><path id="path1827" d="m 128.2861,110.9666 0.5724,-0.5725"/><path id="path1828" d="m 129.5319,111.0676 -0.3367,-0.3367"/><path id="path1829" d="m 129.1952,110.7309 -0.3704,0.303"/><path id="path1830" d="m 128.8248,111.0339 h 0.0674"/><path id="path1831" d="m 128.8922,111.0339 0.101,0.0337"/><path id="path1832" d="m 128.9932,111.0676 0.1683,0.1683"/><path id="path1833" d="m 129.1615,111.2359 0.0337,0.1011"/><path id="path1834" d="m 129.1952,111.337 v 0.0673"/><path id="path1835" d="m 129.1952,111.4043 -0.0337,0.101"/><path id="path1836" d="m 129.1615,111.5053 -0.1683,0.1684"/><path id="path1837" d="m 128.9932,111.6737 -0.101,0.0336"/><path id="path1838" d="m 128.8922,111.7073 h -0.0674"/><path id="path1839" d="m 128.8248,111.7073 -0.101,-0.0336"/><path id="path1840" d="m 128.7238,111.6737 -0.1684,-0.1684"/><path id="path1841" d="m 128.5554,111.5053 -0.0336,-0.101"/><path id="path1842" d="M 128.5218,111.4043 V 111.337"/><path id="path1843" d="m 108.7858,86.3979 0.0476,-0.1428"/><path id="path1844" d="M 108.8334,86.2551 V 86.017"/><path id="path1845" d="m 108.8334,86.017 -0.0476,-0.0953"/><path id="path1846" d="m 108.7858,85.9217 -0.0477,-0.0476"/><path id="path1847" d="m 108.7381,85.8741 -0.0952,-0.0476"/><path id="path1848" d="m 108.6429,85.8265 h -0.0952"/><path id="path1849" d="m 108.5477,85.8265 -0.0953,0.0476"/><path id="path1850" d="m 108.4524,85.8741 -0.0476,0.0476"/><path id="path1851" d="m 108.4048,85.9217 -0.0476,0.0953"/><path id="path1852" d="m 108.3572,86.017 -0.0476,0.1905"/><path id="path1853" d="m 108.3096,86.2075 -0.0477,0.0952"/><path id="path1854" d="m 108.2619,86.3027 -0.0476,0.0476"/><path id="path1855" d="m 108.2143,86.3503 -0.0952,0.0476"/><path id="path1856" d="m 108.1191,86.3979 h -0.0952"/><path id="path1857" d="m 108.0239,86.3979 -0.0953,-0.0476"/><path id="path1858" d="M 107.9286,86.3503 107.881,86.3027"/><path id="path1859" d="m 107.881,86.3027 -0.0476,-0.0952"/><path id="path1860" d="M 107.8334,86.2075 V 85.9694"/><path id="path1861" d="m 107.8334,85.9694 0.0476,-0.1429"/><path id="path1862" d="m 107.8334,85.4932 1,-0.2381"/><path id="path1863" d="m 108.8334,85.2551 -0.7143,-0.1905"/><path id="path1864" d="m 108.1191,85.0646 0.7143,-0.1905"/><path id="path1865" d="m 108.8334,84.8741 -1,-0.2381"/><path id="path1866" d="M 107.9286,84.3027 107.881,84.2551"/><path id="path1867" d="m 107.881,84.2551 -0.0476,-0.0953"/><path id="path1868" d="M 107.8334,84.1598 V 83.9217"/><path id="path1869" d="m 107.8334,83.9217 0.0476,-0.0952"/><path id="path1870" d="m 107.881,83.8265 0.0476,-0.0476"/><path id="path1871" d="m 107.9286,83.7789 0.0953,-0.0476"/><path id="path1872" d="m 108.0239,83.7313 h 0.0952"/><path id="path1873" d="m 108.1191,83.7313 0.1428,0.0476"/><path id="path1874" d="m 108.2619,83.7789 0.5715,0.5714"/><path id="path1875" d="m 108.8334,84.3503 v -0.619"/><path id="path1876" d="m 108.7858,95.5179 0.0476,-0.1428"/><path id="path1877" d="M 108.8334,95.3751 V 95.137"/><path id="path1878" d="m 108.8334,95.137 -0.0476,-0.0953"/><path id="path1879" d="m 108.7858,95.0417 -0.0477,-0.0476"/><path id="path1880" d="m 108.7381,94.9941 -0.0952,-0.0476"/><path id="path1881" d="m 108.6429,94.9465 h -0.0952"/><path id="path1882" d="m 108.5477,94.9465 -0.0953,0.0476"/><path id="path1883" d="m 108.4524,94.9941 -0.0476,0.0476"/><path id="path1884" d="m 108.4048,95.0417 -0.0476,0.0953"/><path id="path1885" d="m 108.3572,95.137 -0.0476,0.1905"/><path id="path1886" d="m 108.3096,95.3275 -0.0477,0.0952"/><path id="path1887" d="m 108.2619,95.4227 -0.0476,0.0476"/><path id="path1888" d="m 108.2143,95.4703 -0.0952,0.0476"/><path id="path1889" d="m 108.1191,95.5179 h -0.0952"/><path id="path1890" d="m 108.0239,95.5179 -0.0953,-0.0476"/><path id="path1891" d="M 107.9286,95.4703 107.881,95.4227"/><path id="path1892" d="m 107.881,95.4227 -0.0476,-0.0952"/><path id="path1893" d="M 107.8334,95.3275 V 95.0894"/><path id="path1894" d="m 107.8334,95.0894 0.0476,-0.1429"/><path id="path1895" d="m 107.8334,94.6132 1,-0.2381"/><path id="path1896" d="m 108.8334,94.3751 -0.7143,-0.1905"/><path id="path1897" d="m 108.1191,94.1846 0.7143,-0.1905"/><path id="path1898" d="m 108.8334,93.9941 -1,-0.2381"/><path id="path1899" d="m 108.8334,92.8513 v 0.5714"/><path id="path1900" d="m 108.8334,93.137 h -1"/><path id="path1901" d="m 107.8334,93.137 0.1428,0.0952"/><path id="path1902" d="m 107.9762,93.2322 0.0953,0.0953"/><path id="path1903" d="m 108.0715,93.3275 0.0476,0.0952"/><path id="path1904" d="m 141.4894,125.3319 -0.4762,0.3333"/><path id="path1905" d="m 141.4894,125.9033 h -1"/><path id="path1906" d="m 140.4894,125.9033 v -0.381"/><path id="path1907" d="m 140.4894,125.5223 0.0476,-0.0952"/><path id="path1908" d="m 140.537,125.4271 0.0476,-0.0476"/><path id="path1909" d="m 140.5846,125.3795 0.0953,-0.0476"/><path id="path1910" d="m 140.6799,125.3319 h 0.1428"/><path id="path1911" d="m 140.8227,125.3319 0.0952,0.0476"/><path id="path1912" d="m 140.9179,125.3795 0.0477,0.0476"/><path id="path1913" d="m 140.9656,125.4271 0.0476,0.0952"/><path id="path1914" d="m 141.0132,125.5223 v 0.381"/><path id="path1915" d="m 141.4894,124.3795 v 0.5714"/><path id="path1916" d="m 141.4894,124.6652 h -1"/><path id="path1917" d="m 140.4894,124.6652 0.1428,0.0952"/><path id="path1918" d="m 140.6322,124.7604 0.0953,0.0953"/><path id="path1919" d="m 140.7275,124.8557 0.0476,0.0952"/><path id="path1920" d="m 140.8227,123.5223 h 0.6667"/><path id="path1921" d="m 140.4418,123.7604 0.7142,0.2381"/><path id="path1922" d="m 141.156,123.9985 v -0.619"/><path id="path1923" d="M 133.4623,98.9374 133.129,98.4612"/><path id="path1924" d="m 132.8909,98.9374 v -1"/><path id="path1925" d="m 132.8909,97.9374 h 0.381"/><path id="path1926" d="m 133.2719,97.9374 0.0952,0.0476"/><path id="path1927" d="m 133.3671,97.985 0.0476,0.0476"/><path id="path1928" d="m 133.4147,98.0326 0.0476,0.0953"/><path id="path1929" d="m 133.4623,98.1279 v 0.1428"/><path id="path1930" d="m 133.4623,98.2707 -0.0476,0.0952"/><path id="path1931" d="m 133.4147,98.3659 -0.0476,0.0477"/><path id="path1932" d="m 133.3671,98.4136 -0.0952,0.0476"/><path id="path1933" d="m 133.2719,98.4612 h -0.381"/><path id="path1934" d="m 134.4147,98.9374 h -0.5714"/><path id="path1935" d="m 134.129,98.9374 v -1"/><path id="path1936" d="m 134.129,97.9374 -0.0952,0.1428"/><path id="path1937" d="m 134.0338,98.0802 -0.0953,0.0953"/><path id="path1938" d="m 133.9385,98.1755 -0.0952,0.0476"/><path id="path1939" d="m 150.5995,137.5434 v -1"/><path id="path1940" d="m 150.5995,136.5434 0.3333,0.7143"/><path id="path1941" d="m 150.9328,137.2577 0.3333,-0.7143"/><path id="path1942" d="m 151.2661,136.5434 v 1"/><path id="path1943" d="m 152.1709,136.5434 h -0.1905"/><path id="path1944" d="m 151.9804,136.5434 -0.0952,0.0476"/><path id="path1945" d="m 151.8852,136.591 -0.0476,0.0476"/><path id="path1946" d="m 151.8376,136.6386 -0.0953,0.1429"/><path id="path1947" d="m 151.7423,136.7815 -0.0476,0.1904"/><path id="path1948" d="m 151.6947,136.9719 v 0.381"/><path id="path1949" d="m 151.6947,137.3529 0.0476,0.0952"/><path id="path1950" d="m 151.7423,137.4481 0.0477,0.0477"/><path id="path1951" d="m 151.79,137.4958 0.0952,0.0476"/><path id="path1952" d="m 151.8852,137.5434 h 0.1905"/><path id="path1953" d="m 152.0757,137.5434 0.0952,-0.0476"/><path id="path1954" d="m 152.1709,137.4958 0.0476,-0.0477"/><path id="path1955" d="m 152.2185,137.4481 0.0476,-0.0952"/><path id="path1956" d="m 152.2661,137.3529 v -0.2381"/><path id="path1957" d="m 152.2661,137.1148 -0.0476,-0.0952"/><path id="path1958" d="m 152.2185,137.0196 -0.0476,-0.0477"/><path id="path1959" d="m 152.1709,136.9719 -0.0952,-0.0476"/><path id="path1960" d="m 152.0757,136.9243 h -0.1905"/><path id="path1961" d="m 151.8852,136.9243 -0.0952,0.0476"/><path id="path1962" d="m 151.79,136.9719 -0.0477,0.0477"/><path id="path1963" d="m 151.7423,137.0196 -0.0476,0.0952"/><path id="path1964" d="m 147.0435,137.5434 v -1"/><path id="path1965" d="m 147.0435,136.5434 0.3333,0.7143"/><path id="path1966" d="m 147.3768,137.2577 0.3333,-0.7143"/><path id="path1967" d="m 147.7101,136.5434 v 1"/><path id="path1968" d="m 148.6625,136.5434 h -0.4762"/><path id="path1969" d="m 148.1863,136.5434 -0.0476,0.4762"/><path id="path1970" d="m 148.1387,137.0196 0.0476,-0.0477"/><path id="path1971" d="m 148.1863,136.9719 0.0953,-0.0476"/><path id="path1972" d="m 148.2816,136.9243 h 0.2381"/><path id="path1973" d="m 148.5197,136.9243 0.0952,0.0476"/><path id="path1974" d="m 148.6149,136.9719 0.0476,0.0477"/><path id="path1975" d="m 148.6625,137.0196 0.0476,0.0952"/><path id="path1976" d="m 148.7101,137.1148 v 0.2381"/><path id="path1977" d="m 148.7101,137.3529 -0.0476,0.0952"/><path id="path1978" d="m 148.6625,137.4481 -0.0476,0.0477"/><path id="path1979" d="m 148.6149,137.4958 -0.0952,0.0476"/><path id="path1980" d="m 148.5197,137.5434 h -0.2381"/><path id="path1981" d="m 148.2816,137.5434 -0.0953,-0.0476"/><path id="path1982" d="m 148.1863,137.4958 -0.0476,-0.0477"/><path id="path1983" d="m 142.9795,137.5434 v -1"/><path id="path1984" d="m 142.9795,136.5434 0.3333,0.7143"/><path id="path1985" d="m 143.3128,137.2577 0.3333,-0.7143"/><path id="path1986" d="m 143.6461,136.5434 v 1"/><path id="path1987" d="m 144.5509,136.8767 v 0.6667"/><path id="path1988" d="m 144.3128,136.4958 -0.2381,0.7142"/><path id="path1989" d="m 144.0747,137.21 h 0.6191"/><path id="path1990" d="m 139.4235,137.5434 v -1"/><path id="path1991" d="m 139.4235,136.5434 0.3333,0.7143"/><path id="path1992" d="m 139.7568,137.2577 0.3333,-0.7143"/><path id="path1993" d="m 140.0901,136.5434 v 1"/><path id="path1994" d="m 140.4711,136.5434 h 0.619"/><path id="path1995" d="m 141.0901,136.5434 -0.3333,0.3809"/><path id="path1996" d="m 140.7568,136.9243 h 0.1429"/><path id="path1997" d="m 140.8997,136.9243 0.0952,0.0476"/><path id="path1998" d="m 140.9949,136.9719 0.0476,0.0477"/><path id="path1999" d="m 141.0425,137.0196 0.0476,0.0952"/><path id="path2000" d="m 141.0901,137.1148 v 0.2381"/><path id="path2001" d="m 141.0901,137.3529 -0.0476,0.0952"/><path id="path2002" d="m 141.0425,137.4481 -0.0476,0.0477"/><path id="path2003" d="m 140.9949,137.4958 -0.0952,0.0476"/><path id="path2004" d="m 140.8997,137.5434 h -0.2858"/><path id="path2005" d="m 140.6139,137.5434 -0.0952,-0.0476"/><path id="path2006" d="m 140.5187,137.4958 -0.0476,-0.0477"/><path id="path2007" d="m 140.6431,127.6302 v -1"/><path id="path2008" d="m 140.6431,126.6302 0.3333,0.7143"/><path id="path2009" d="m 140.9764,127.3445 0.3333,-0.7143"/><path id="path2010" d="m 141.3097,126.6302 v 1"/><path id="path2011" d="m 141.7383,126.7254 0.0476,-0.0476"/><path id="path2012" d="m 141.7859,126.6778 0.0953,-0.0476"/><path id="path2013" d="m 141.8812,126.6302 h 0.2381"/><path id="path2014" d="m 142.1193,126.6302 0.0952,0.0476"/><path id="path2015" d="m 142.2145,126.6778 0.0476,0.0476"/><path id="path2016" d="m 142.2621,126.7254 0.0476,0.0953"/><path id="path2017" d="m 142.3097,126.8207 v 0.0952"/><path id="path2018" d="m 142.3097,126.9159 -0.0476,0.1428"/><path id="path2019" d="m 142.2621,127.0587 -0.5714,0.5715"/><path id="path2020" d="m 141.6907,127.6302 h 0.619"/><path id="path2021" d="m 149.3045,127.8334 v -1"/><path id="path2022" d="m 149.3045,126.8334 0.3333,0.7143"/><path id="path2023" d="m 149.6378,127.5477 0.3333,-0.7143"/><path id="path2024" d="m 149.9711,126.8334 v 1"/><path id="path2025" d="m 150.9711,127.8334 h -0.5714"/><path id="path2026" d="m 150.6854,127.8334 v -1"/><path id="path2027" d="m 150.6854,126.8334 -0.0952,0.1428"/><path id="path2028" d="m 150.5902,126.9762 -0.0953,0.0953"/><path id="path2029" d="m 150.4949,127.0715 -0.0952,0.0476"/><path id="path2030" d="m 129.0095,63.479 v 0.7143"/><path id="path2031" d="m 129.0095,64.1933 -0.0476,0.1428"/><path id="path2032" d="m 128.9619,64.3361 -0.0953,0.0953"/><path id="path2033" d="m 128.8666,64.4314 -0.1428,0.0476"/><path id="path2034" d="m 128.7238,64.479 h -0.0953"/><path id="path2035" d="m 130.0095,64.479 h -0.5714"/><path id="path2036" d="m 129.7238,64.479 v -1"/><path id="path2037" d="m 129.7238,63.479 -0.0953,0.1428"/><path id="path2038" d="m 129.6285,63.6218 -0.0952,0.0953"/><path id="path2039" d="m 129.5333,63.7171 -0.0952,0.0476"/><path id="path2040" d="m 130.9142,63.479 h -0.4761"/><path id="path2041" d="m 130.4381,63.479 -0.0477,0.4762"/><path id="path2042" d="m 130.3904,63.9552 0.0477,-0.0476"/><path id="path2043" d="m 130.4381,63.9076 0.0952,-0.0477"/><path id="path2044" d="m 130.5333,63.8599 h 0.2381"/><path id="path2045" d="m 130.7714,63.8599 0.0952,0.0477"/><path id="path2046" d="m 130.8666,63.9076 0.0476,0.0476"/><path id="path2047" d="m 130.9142,63.9552 0.0477,0.0952"/><path id="path2048" d="m 130.9619,64.0504 v 0.2381"/><path id="path2049" d="m 130.9619,64.2885 -0.0477,0.0952"/><path id="path2050" d="m 130.9142,64.3837 -0.0476,0.0477"/><path id="path2051" d="m 130.8666,64.4314 -0.0952,0.0476"/><path id="path2052" d="m 130.7714,64.479 h -0.2381"/><path id="path2053" d="m 130.5333,64.479 -0.0952,-0.0476"/><path id="path2054" d="m 130.4381,64.4314 -0.0477,-0.0477"/><path id="path2055" d="m 122.9135,63.479 v 0.7143"/><path id="path2056" d="m 122.9135,64.1933 -0.0476,0.1428"/><path id="path2057" d="m 122.8659,64.3361 -0.0953,0.0953"/><path id="path2058" d="m 122.7706,64.4314 -0.1428,0.0476"/><path id="path2059" d="m 122.6278,64.479 h -0.0953"/><path id="path2060" d="m 123.9135,64.479 h -0.5714"/><path id="path2061" d="m 123.6278,64.479 v -1"/><path id="path2062" d="m 123.6278,63.479 -0.0953,0.1428"/><path id="path2063" d="m 123.5325,63.6218 -0.0952,0.0953"/><path id="path2064" d="m 123.4373,63.7171 -0.0952,0.0476"/><path id="path2065" d="M 124.7706,63.8123 V 64.479"/><path id="path2066" d="m 124.5325,63.4314 -0.2381,0.7143"/><path id="path2067" d="m 124.2944,64.1457 h 0.6191"/><path id="path2068" d="m 161.7755,48.659 v 0.7143"/><path id="path2069" d="m 161.7755,49.3733 -0.0476,0.1428"/><path id="path2070" d="m 161.7279,49.5161 -0.0953,0.0953"/><path id="path2071" d="m 161.6326,49.6114 -0.1428,0.0476"/><path id="path2072" d="m 161.4898,49.659 h -0.0953"/><path id="path2073" d="M 162.7755,49.659 H 162.204"/><path id="path2074" d="m 162.4898,49.659 v -1"/><path id="path2075" d="m 162.4898,48.659 -0.0953,0.1428"/><path id="path2076" d="m 162.3945,48.8018 -0.0952,0.0953"/><path id="path2077" d="m 162.2993,48.8971 -0.0953,0.0476"/><path id="path2078" d="m 163.1088,48.659 h 0.6191"/><path id="path2079" d="m 163.7279,48.659 -0.3334,0.3809"/><path id="path2080" d="m 163.3945,49.0399 h 0.1429"/><path id="path2081" d="m 163.5374,49.0399 0.0952,0.0477"/><path id="path2082" d="m 163.6326,49.0876 0.0476,0.0476"/><path id="path2083" d="m 163.6802,49.1352 0.0477,0.0952"/><path id="path2084" d="m 163.7279,49.2304 v 0.2381"/><path id="path2085" d="m 163.7279,49.4685 -0.0477,0.0952"/><path id="path2086" d="m 163.6802,49.5637 -0.0476,0.0477"/><path id="path2087" d="m 163.6326,49.6114 -0.0952,0.0476"/><path id="path2088" d="m 163.5374,49.659 h -0.2857"/><path id="path2089" d="m 163.2517,49.659 -0.0953,-0.0476"/><path id="path2090" d="m 163.1564,49.6114 -0.0476,-0.0477"/><path id="path2091" d="m 152.1235,48.659 v 0.7143"/><path id="path2092" d="m 152.1235,49.3733 -0.0476,0.1428"/><path id="path2093" d="m 152.0759,49.5161 -0.0953,0.0953"/><path id="path2094" d="m 151.9806,49.6114 -0.1428,0.0476"/><path id="path2095" d="m 151.8378,49.659 h -0.0953"/><path id="path2096" d="M 153.1235,49.659 H 152.552"/><path id="path2097" d="m 152.8378,49.659 v -1"/><path id="path2098" d="m 152.8378,48.659 -0.0953,0.1428"/><path id="path2099" d="m 152.7425,48.8018 -0.0952,0.0953"/><path id="path2100" d="m 152.6473,48.8971 -0.0953,0.0476"/><path id="path2101" d="m 153.5044,48.7542 0.0476,-0.0476"/><path id="path2102" d="m 153.552,48.7066 0.0953,-0.0476"/><path id="path2103" d="m 153.6473,48.659 h 0.2381"/><path id="path2104" d="m 153.8854,48.659 0.0952,0.0476"/><path id="path2105" d="m 153.9806,48.7066 0.0476,0.0476"/><path id="path2106" d="m 154.0282,48.7542 0.0477,0.0953"/><path id="path2107" d="m 154.0759,48.8495 v 0.0952"/><path id="path2108" d="m 154.0759,48.9447 -0.0477,0.1429"/><path id="path2109" d="m 154.0282,49.0876 -0.5714,0.5714"/><path id="path2110" d="m 153.4568,49.659 h 0.6191"/><path id="path2111" d="m 108.1334,105.6865 h 0.7143"/><path id="path2112" d="m 108.8477,105.6865 0.1428,0.0476"/><path id="path2113" d="m 108.9905,105.7341 0.0953,0.0953"/><path id="path2114" d="m 109.0858,105.8294 0.0476,0.1428"/><path id="path2115" d="m 109.1334,105.9722 v 0.0953"/><path id="path2116" d="m 109.1334,104.6865 v 0.5714"/><path id="path2117" d="m 109.1334,104.9722 h -1"/><path id="path2118" d="m 108.1334,104.9722 0.1428,0.0953"/><path id="path2119" d="m 108.2762,105.0675 0.0953,0.0952"/><path id="path2120" d="m 108.3715,105.1627 0.0476,0.0952"/><path id="path2121" d="m 109.1334,103.7341 v 0.5715"/><path id="path2122" d="m 109.1334,104.0199 h -1"/><path id="path2123" d="m 108.1334,104.0199 0.1428,0.0952"/><path id="path2124" d="m 108.2762,104.1151 0.0953,0.0952"/><path id="path2125" d="m 108.3715,104.2103 0.0476,0.0953"/><path id="path2126" d="m 178.5914,101.6225 h 0.7143"/><path id="path2127" d="m 179.3057,101.6225 0.1428,0.0476"/><path id="path2128" d="m 179.4485,101.6701 0.0953,0.0953"/><path id="path2129" d="m 179.5438,101.7654 0.0476,0.1428"/><path id="path2130" d="m 179.5914,101.9082 v 0.0953"/><path id="path2131" d="m 179.5914,100.6225 v 0.5715"/><path id="path2132" d="m 179.5914,100.9082 h -1"/><path id="path2133" d="m 178.5914,100.9082 0.1428,0.0953"/><path id="path2134" d="m 178.7342,101.0035 0.0953,0.0952"/><path id="path2135" d="m 178.8295,101.0987 0.0476,0.0953"/><path id="path2136" d="M 178.5914,100.0035 V 99.9082"/><path id="path2137" d="M 178.5914,99.9082 178.639,99.813"/><path id="path2138" d="m 178.639,99.813 0.0476,-0.0476"/><path id="path2139" d="m 178.6866,99.7654 0.0953,-0.0476"/><path id="path2140" d="m 178.7819,99.7178 0.1904,-0.0477"/><path id="path2141" d="m 178.9723,99.6701 h 0.2381"/><path id="path2142" d="m 179.2104,99.6701 0.1905,0.0477"/><path id="path2143" d="m 179.4009,99.7178 0.0952,0.0476"/><path id="path2144" d="m 179.4961,99.7654 0.0477,0.0476"/><path id="path2145" d="m 179.5438,99.813 0.0476,0.0952"/><path id="path2146" d="m 179.5914,99.9082 v 0.0953"/><path id="path2147" d="m 179.5914,100.0035 -0.0476,0.0952"/><path id="path2148" d="m 179.5438,100.0987 -0.0477,0.0476"/><path id="path2149" d="m 179.4961,100.1463 -0.0952,0.0477"/><path id="path2150" d="m 179.4009,100.194 -0.1905,0.0476"/><path id="path2151" d="m 179.2104,100.2416 h -0.2381"/><path id="path2152" d="m 178.9723,100.2416 -0.1904,-0.0476"/><path id="path2153" d="m 178.7819,100.194 -0.0953,-0.0477"/><path id="path2154" d="m 178.6866,100.1463 -0.0476,-0.0476"/><path id="path2155" d="m 178.639,100.0987 -0.0476,-0.0952"/><path id="path2156" d="m 170.3797,48.659 v 0.7143"/><path id="path2157" d="m 170.3797,49.3733 -0.0477,0.1428"/><path id="path2158" d="m 170.332,49.5161 -0.0952,0.0953"/><path id="path2159" d="m 170.2368,49.6114 -0.1429,0.0476"/><path id="path2160" d="m 170.0939,49.659 h -0.0952"/><path id="path2161" d="m 170.9035,49.659 h 0.1904"/><path id="path2162" d="m 171.0939,49.659 0.0953,-0.0476"/><path id="path2163" d="m 171.1892,49.6114 0.0476,-0.0477"/><path id="path2164" d="m 171.2368,49.5637 0.0952,-0.1428"/><path id="path2165" d="m 171.332,49.4209 0.0477,-0.1905"/><path id="path2166" d="M 171.3797,49.2304 V 48.8495"/><path id="path2167" d="M 171.3797,48.8495 171.332,48.7542"/><path id="path2168" d="m 171.332,48.7542 -0.0476,-0.0476"/><path id="path2169" d="M 171.2844,48.7066 171.1892,48.659"/><path id="path2170" d="m 171.1892,48.659 h -0.1905"/><path id="path2171" d="m 170.9987,48.659 -0.0952,0.0476"/><path id="path2172" d="m 170.9035,48.7066 -0.0476,0.0476"/><path id="path2173" d="m 170.8559,48.7542 -0.0477,0.0953"/><path id="path2174" d="m 170.8082,48.8495 v 0.2381"/><path id="path2175" d="m 170.8082,49.0876 0.0477,0.0952"/><path id="path2176" d="m 170.8559,49.1828 0.0476,0.0476"/><path id="path2177" d="m 170.9035,49.2304 0.0952,0.0476"/><path id="path2178" d="m 170.9987,49.278 h 0.1905"/><path id="path2179" d="m 171.1892,49.278 0.0952,-0.0476"/><path id="path2180" d="m 171.2844,49.2304 0.0476,-0.0476"/><path id="path2181" d="m 171.332,49.1828 0.0477,-0.0952"/><path id="path2182" d="m 108.1334,114.3543 h 0.7143"/><path id="path2183" d="m 108.8477,114.3543 0.1428,0.0476"/><path id="path2184" d="m 108.9905,114.4019 0.0953,0.0953"/><path id="path2185" d="m 109.0858,114.4972 0.0476,0.1428"/><path id="path2186" d="m 109.1334,114.64 v 0.0953"/><path id="path2187" d="m 108.5619,113.7353 -0.0476,0.0952"/><path id="path2188" d="m 108.5143,113.8305 -0.0476,0.0476"/><path id="path2189" d="m 108.4667,113.8781 -0.0952,0.0477"/><path id="path2190" d="m 108.3715,113.9258 h -0.0476"/><path id="path2191" d="m 108.3239,113.9258 -0.0953,-0.0477"/><path id="path2192" d="m 108.2286,113.8781 -0.0476,-0.0476"/><path id="path2193" d="m 108.181,113.8305 -0.0476,-0.0952"/><path id="path2194" d="m 108.1334,113.7353 v -0.1905"/><path id="path2195" d="m 108.1334,113.5448 0.0476,-0.0952"/><path id="path2196" d="m 108.181,113.4496 0.0476,-0.0477"/><path id="path2197" d="m 108.2286,113.4019 0.0953,-0.0476"/><path id="path2198" d="m 108.3239,113.3543 h 0.0476"/><path id="path2199" d="m 108.3715,113.3543 0.0952,0.0476"/><path id="path2200" d="m 108.4667,113.4019 0.0476,0.0477"/><path id="path2201" d="m 108.5143,113.4496 0.0476,0.0952"/><path id="path2202" d="m 108.5619,113.5448 v 0.1905"/><path id="path2203" d="m 108.5619,113.7353 0.0477,0.0952"/><path id="path2204" d="m 108.6096,113.8305 0.0476,0.0476"/><path id="path2205" d="m 108.6572,113.8781 0.0952,0.0477"/><path id="path2206" d="m 108.7524,113.9258 h 0.1905"/><path id="path2207" d="m 108.9429,113.9258 0.0952,-0.0477"/><path id="path2208" d="m 109.0381,113.8781 0.0477,-0.0476"/><path id="path2209" d="m 109.0858,113.8305 0.0476,-0.0952"/><path id="path2210" d="m 109.1334,113.7353 v -0.1905"/><path id="path2211" d="m 109.1334,113.5448 -0.0476,-0.0952"/><path id="path2212" d="m 109.0858,113.4496 -0.0477,-0.0477"/><path id="path2213" d="m 109.0381,113.4019 -0.0952,-0.0476"/><path id="path2214" d="m 108.9429,113.3543 h -0.1905"/><path id="path2215" d="m 108.7524,113.3543 -0.0952,0.0476"/><path id="path2216" d="m 108.6572,113.4019 -0.0476,0.0477"/><path id="path2217" d="m 108.6096,113.4496 -0.0477,0.0952"/><path id="path2218" d="m 166.3157,48.659 v 0.7143"/><path id="path2219" d="m 166.3157,49.3733 -0.0477,0.1428"/><path id="path2220" d="m 166.268,49.5161 -0.0952,0.0953"/><path id="path2221" d="m 166.1728,49.6114 -0.1429,0.0476"/><path id="path2222" d="m 166.0299,49.659 h -0.0952"/><path id="path2223" d="m 167.2204,48.659 h -0.1905"/><path id="path2224" d="m 167.0299,48.659 -0.0952,0.0476"/><path id="path2225" d="m 166.9347,48.7066 -0.0476,0.0476"/><path id="path2226" d="m 166.8871,48.7542 -0.0952,0.1429"/><path id="path2227" d="m 166.7919,48.8971 -0.0477,0.1905"/><path id="path2228" d="m 166.7442,49.0876 v 0.3809"/><path id="path2229" d="m 166.7442,49.4685 0.0477,0.0952"/><path id="path2230" d="m 166.7919,49.5637 0.0476,0.0477"/><path id="path2231" d="m 166.8395,49.6114 0.0952,0.0476"/><path id="path2232" d="m 166.9347,49.659 h 0.1905"/><path id="path2233" d="m 167.1252,49.659 0.0952,-0.0476"/><path id="path2234" d="m 167.2204,49.6114 0.0476,-0.0477"/><path id="path2235" d="m 167.268,49.5637 0.0477,-0.0952"/><path id="path2236" d="M 167.3157,49.4685 V 49.2304"/><path id="path2237" d="M 167.3157,49.2304 167.268,49.1352"/><path id="path2238" d="m 167.268,49.1352 -0.0476,-0.0476"/><path id="path2239" d="m 167.2204,49.0876 -0.0952,-0.0477"/><path id="path2240" d="m 167.1252,49.0399 h -0.1905"/><path id="path2241" d="m 166.9347,49.0399 -0.0952,0.0477"/><path id="path2242" d="m 166.8395,49.0876 -0.0476,0.0476"/><path id="path2243" d="m 166.7919,49.1352 -0.0477,0.0952"/><path id="path2244" d="m 149.0437,48.659 v 0.7143"/><path id="path2245" d="m 149.0437,49.3733 -0.0477,0.1428"/><path id="path2246" d="m 148.996,49.5161 -0.0952,0.0953"/><path id="path2247" d="m 148.9008,49.6114 -0.1429,0.0476"/><path id="path2248" d="m 148.7579,49.659 h -0.0952"/><path id="path2249" d="m 149.996,48.659 h -0.4761"/><path id="path2250" d="m 149.5199,48.659 -0.0477,0.4762"/><path id="path2251" d="m 149.4722,49.1352 0.0477,-0.0476"/><path id="path2252" d="m 149.5199,49.0876 0.0952,-0.0477"/><path id="path2253" d="m 149.6151,49.0399 h 0.2381"/><path id="path2254" d="m 149.8532,49.0399 0.0952,0.0477"/><path id="path2255" d="m 149.9484,49.0876 0.0476,0.0476"/><path id="path2256" d="m 149.996,49.1352 0.0477,0.0952"/><path id="path2257" d="m 150.0437,49.2304 v 0.2381"/><path id="path2258" d="m 150.0437,49.4685 -0.0477,0.0952"/><path id="path2259" d="m 149.996,49.5637 -0.0476,0.0477"/><path id="path2260" d="m 149.9484,49.6114 -0.0952,0.0476"/><path id="path2261" d="m 149.8532,49.659 h -0.2381"/><path id="path2262" d="m 149.6151,49.659 -0.0952,-0.0476"/><path id="path2263" d="m 149.5199,49.6114 -0.0477,-0.0477"/><path id="path2264" d="m 140.9157,48.659 v 0.7143"/><path id="path2265" d="m 140.9157,49.3733 -0.0477,0.1428"/><path id="path2266" d="m 140.868,49.5161 -0.0952,0.0953"/><path id="path2267" d="m 140.7728,49.6114 -0.1429,0.0476"/><path id="path2268" d="m 140.6299,49.659 h -0.0952"/><path id="path2269" d="M 141.8204,48.9923 V 49.659"/><path id="path2270" d="m 141.5823,48.6114 -0.2381,0.7142"/><path id="path2271" d="m 141.3442,49.3256 h 0.6191"/><path id="path2272" d="m 117.2937,63.479 v 0.7143"/><path id="path2273" d="m 117.2937,64.1933 -0.0477,0.1428"/><path id="path2274" d="m 117.246,64.3361 -0.0952,0.0953"/><path id="path2275" d="m 117.1508,64.4314 -0.1429,0.0476"/><path id="path2276" d="m 117.0079,64.479 h -0.0952"/><path id="path2277" d="m 117.6746,63.479 h 0.6191"/><path id="path2278" d="m 118.2937,63.479 -0.3334,0.3809"/><path id="path2279" d="m 117.9603,63.8599 h 0.1429"/><path id="path2280" d="m 118.1032,63.8599 0.0952,0.0477"/><path id="path2281" d="m 118.1984,63.9076 0.0476,0.0476"/><path id="path2282" d="m 118.246,63.9552 0.0477,0.0952"/><path id="path2283" d="m 118.2937,64.0504 v 0.2381"/><path id="path2284" d="m 118.2937,64.2885 -0.0477,0.0952"/><path id="path2285" d="m 118.246,64.3837 -0.0476,0.0477"/><path id="path2286" d="m 118.1984,64.4314 -0.0952,0.0476"/><path id="path2287" d="m 118.1032,64.479 h -0.2857"/><path id="path2288" d="m 117.8175,64.479 -0.0953,-0.0476"/><path id="path2289" d="m 117.7222,64.4314 -0.0476,-0.0477"/><path id="path2290" d="m 108.1334,123.4983 h 0.7143"/><path id="path2291" d="m 108.8477,123.4983 0.1428,0.0476"/><path id="path2292" d="m 108.9905,123.5459 0.0953,0.0953"/><path id="path2293" d="m 109.0858,123.6412 0.0476,0.1428"/><path id="path2294" d="m 109.1334,123.784 v 0.0953"/><path id="path2295" d="m 108.2286,123.0698 -0.0476,-0.0477"/><path id="path2296" d="m 108.181,123.0221 -0.0476,-0.0952"/><path id="path2297" d="m 108.1334,122.9269 v -0.2381"/><path id="path2298" d="m 108.1334,122.6888 0.0476,-0.0952"/><path id="path2299" d="m 108.181,122.5936 0.0476,-0.0477"/><path id="path2300" d="m 108.2286,122.5459 0.0953,-0.0476"/><path id="path2301" d="m 108.3239,122.4983 h 0.0952"/><path id="path2302" d="m 108.4191,122.4983 0.1428,0.0476"/><path id="path2303" d="m 108.5619,122.5459 0.5715,0.5715"/><path id="path2304" d="m 109.1334,123.1174 v -0.6191"/><path id="path2305" d="m 114.6714,67.2219 h 0.7143"/><path id="path2306" d="m 115.3857,67.2219 0.1428,0.0476"/><path id="path2307" d="m 115.5285,67.2695 0.0953,0.0953"/><path id="path2308" d="m 115.6238,67.3648 0.0476,0.1428"/><path id="path2309" d="m 115.6714,67.5076 v 0.0953"/><path id="path2310" d="m 115.6714,66.2219 v 0.5715"/><path id="path2311" d="m 115.6714,66.5076 h -1"/><path id="path2312" d="m 114.6714,66.5076 0.1428,0.0953"/><path id="path2313" d="m 114.8142,66.6029 0.0953,0.0952"/><path id="path2314" d="m 114.9095,66.6981 0.0476,0.0953"/><path id="path2315" d="m 168.9589,84.999 v -1"/><path id="path2316" d="m 168.9589,83.999 h 0.2381"/><path id="path2317" d="m 169.197,83.999 0.1429,0.0476"/><path id="path2318" d="m 169.3399,84.0466 0.0952,0.0952"/><path id="path2319" d="m 169.4351,84.1418 0.0476,0.0953"/><path id="path2320" d="m 169.4827,84.2371 0.0476,0.1904"/><path id="path2321" d="m 169.5303,84.4275 v 0.1429"/><path id="path2322" d="m 169.5303,84.5704 -0.0476,0.1905"/><path id="path2323" d="m 169.4827,84.7609 -0.0476,0.0952"/><path id="path2324" d="m 169.4351,84.8561 -0.0952,0.0953"/><path id="path2325" d="M 169.3399,84.9514 169.197,84.999"/><path id="path2326" d="m 169.197,84.999 h -0.2381"/><path id="path2327" d="m 169.8637,83.999 h 0.619"/><path id="path2328" d="m 170.4827,83.999 -0.3333,0.3809"/><path id="path2329" d="m 170.1494,84.3799 h 0.1428"/><path id="path2330" d="m 170.2922,84.3799 0.0953,0.0476"/><path id="path2331" d="m 170.3875,84.4275 0.0476,0.0477"/><path id="path2332" d="m 170.4351,84.4752 0.0476,0.0952"/><path id="path2333" d="m 170.4827,84.5704 v 0.2381"/><path id="path2334" d="m 170.4827,84.8085 -0.0476,0.0952"/><path id="path2335" d="m 170.4351,84.9037 -0.0476,0.0477"/><path id="path2336" d="m 170.3875,84.9514 -0.0953,0.0476"/><path id="path2337" d="m 170.2922,84.999 h -0.2857"/><path id="path2338" d="m 170.0065,84.999 -0.0952,-0.0476"/><path id="path2339" d="m 169.9113,84.9514 -0.0476,-0.0477"/><path id="path2340" d="m 145.0829,85.507 v -1"/><path id="path2341" d="m 145.0829,84.507 h 0.2381"/><path id="path2342" d="m 145.321,84.507 0.1429,0.0476"/><path id="path2343" d="m 145.4639,84.5546 0.0952,0.0952"/><path id="path2344" d="m 145.5591,84.6498 0.0476,0.0953"/><path id="path2345" d="m 145.6067,84.7451 0.0476,0.1904"/><path id="path2346" d="m 145.6543,84.9355 v 0.1429"/><path id="path2347" d="m 145.6543,85.0784 -0.0476,0.1905"/><path id="path2348" d="m 145.6067,85.2689 -0.0476,0.0952"/><path id="path2349" d="m 145.5591,85.3641 -0.0952,0.0953"/><path id="path2350" d="M 145.4639,85.4594 145.321,85.507"/><path id="path2351" d="m 145.321,85.507 h -0.2381"/><path id="path2352" d="m 146.0353,84.6022 0.0476,-0.0476"/><path id="path2353" d="m 146.0829,84.5546 0.0952,-0.0476"/><path id="path2354" d="m 146.1781,84.507 h 0.2381"/><path id="path2355" d="m 146.4162,84.507 0.0953,0.0476"/><path id="path2356" d="m 146.5115,84.5546 0.0476,0.0476"/><path id="path2357" d="m 146.5591,84.6022 0.0476,0.0953"/><path id="path2358" d="m 146.6067,84.6975 v 0.0952"/><path id="path2359" d="m 146.6067,84.7927 -0.0476,0.1428"/><path id="path2360" d="m 146.5591,84.9355 -0.5714,0.5715"/><path id="path2361" d="m 145.9877,85.507 h 0.619"/><path id="path2362" d="m 121.2069,85.507 v -1"/><path id="path2363" d="m 121.2069,84.507 h 0.2381"/><path id="path2364" d="m 121.445,84.507 0.1429,0.0476"/><path id="path2365" d="m 121.5879,84.5546 0.0952,0.0952"/><path id="path2366" d="m 121.6831,84.6498 0.0476,0.0953"/><path id="path2367" d="m 121.7307,84.7451 0.0476,0.1904"/><path id="path2368" d="m 121.7783,84.9355 v 0.1429"/><path id="path2369" d="m 121.7783,85.0784 -0.0476,0.1905"/><path id="path2370" d="m 121.7307,85.2689 -0.0476,0.0952"/><path id="path2371" d="m 121.6831,85.3641 -0.0952,0.0953"/><path id="path2372" d="M 121.5879,85.4594 121.445,85.507"/><path id="path2373" d="m 121.445,85.507 h -0.2381"/><path id="path2374" d="m 122.7307,85.507 h -0.5714"/><path id="path2375" d="m 122.445,85.507 v -1"/><path id="path2376" d="m 122.445,84.507 -0.0952,0.1428"/><path id="path2377" d="m 122.3498,84.6498 -0.0953,0.0953"/><path id="path2378" d="m 122.2545,84.7451 -0.0952,0.0476"/><path id="path2379" d="m 183.1591,48.297 v -1"/><path id="path2380" d="m 183.1591,47.7732 h 0.5714"/><path id="path2381" d="m 183.7305,48.297 v -1"/><path id="path2382" d="m 184.7305,48.297 h -0.5714"/><path id="path2383" d="m 184.4448,48.297 v -1"/><path id="path2384" d="m 184.4448,47.297 -0.0952,0.1428"/><path id="path2385" d="m 184.3496,47.4398 -0.0953,0.0953"/><path id="path2386" d="m 184.2543,47.5351 -0.0952,0.0476"/><path id="path2387" d="m 104.9271,48.297 v -1"/><path id="path2388" d="m 104.9271,47.7732 h 0.5714"/><path id="path2389" d="m 105.4985,48.297 v -1"/><path id="path2390" d="m 105.9271,47.3922 0.0476,-0.0476"/><path id="path2391" d="m 105.9747,47.3446 0.0952,-0.0476"/><path id="path2392" d="m 106.0699,47.297 h 0.2381"/><path id="path2393" d="m 106.308,47.297 0.0953,0.0476"/><path id="path2394" d="m 106.4033,47.3446 0.0476,0.0476"/><path id="path2395" d="m 106.4509,47.3922 0.0476,0.0953"/><path id="path2396" d="m 106.4985,47.4875 v 0.0952"/><path id="path2397" d="m 106.4985,47.5827 -0.0476,0.1428"/><path id="path2398" d="m 106.4509,47.7255 -0.5714,0.5715"/><path id="path2399" d="m 105.8795,48.297 h 0.619"/><path id="path2400" d="m 104.9271,138.7214 v -1"/><path id="path2401" d="m 104.9271,138.1976 h 0.5714"/><path id="path2402" d="m 105.4985,138.7214 v -1"/><path id="path2403" d="m 105.8795,137.7214 h 0.619"/><path id="path2404" d="m 106.4985,137.7214 -0.3333,0.3809"/><path id="path2405" d="m 106.1652,138.1023 h 0.1428"/><path id="path2406" d="m 106.308,138.1023 0.0953,0.0476"/><path id="path2407" d="m 106.4033,138.1499 0.0476,0.0477"/><path id="path2408" d="m 106.4509,138.1976 0.0476,0.0952"/><path id="path2409" d="m 106.4985,138.2928 v 0.2381"/><path id="path2410" d="m 106.4985,138.5309 -0.0476,0.0952"/><path id="path2411" d="m 106.4509,138.6261 -0.0476,0.0477"/><path id="path2412" d="m 106.4033,138.6738 -0.0953,0.0476"/><path id="path2413" d="m 106.308,138.7214 h -0.2857"/><path id="path2414" d="m 106.0223,138.7214 -0.0952,-0.0476"/><path id="path2415" d="m 105.9271,138.6738 -0.0476,-0.0477"/><path id="path2416" d="m 183.1591,138.7214 v -1"/><path id="path2417" d="m 183.1591,138.1976 h 0.5714"/><path id="path2418" d="m 183.7305,138.7214 v -1"/><path id="path2419" d="m 184.6353,138.0547 v 0.6667"/><path id="path2420" d="m 184.3972,137.6738 -0.2381,0.7142"/><path id="path2421" d="m 184.1591,138.388 h 0.619"/></g><metadata id="metadata2425"/></svg>